<?xml version="1.0" encoding="utf-8"?>
<!-- Svg Vector Icons : http://www.onlinewebfonts.com/icon -->
<!DOCTYPE svg PUBLIC "-//W3C//DTD SVG 1.1//EN" "http://www.w3.org/Graphics/SVG/1.1/DTD/svg11.dtd">
<svg version="1.1" xmlns="http://www.w3.org/2000/svg" xmlns:xlink="http://www.w3.org/1999/xlink" x="0px" y="0px" viewBox="0 0 1000 1000" enable-background="new 0 0 1000 1000" xml:space="preserve">
<metadata> Svg Vector Icons : http://www.onlinewebfonts.com/icon </metadata>
<g><g transform="translate(0.000000,511.000000) scale(0.100000,-0.100000)"><path d="M1219.5,110v-4900h2929.8h2927.2l821.8,821.8c564,566.6,832,852.4,855,913.6c25.5,71.5,30.6,875.4,25.5,4078.2l-7.7,3986.4H4996.6H1219.5V110z M8365.3,977.7v-3624h-855h-854.9V-3514v-867.7H4141.6H1627.8V110v4491.7h3368.7h3368.7V977.7z M8186.7-3072.5c0-25.5-1105-1130.6-1128-1130.6c-25.5,0-28.1,1107.6-2.5,1130.6C7079.1-3046.9,8186.7-3049.5,8186.7-3072.5z"/><path d="M4065,3736.5c-247.6-63.8-444.1-250.1-515.5-484.9c-48.5-163.3-53.6-474.7-10.2-630.4c35.7-137.8,148-298.6,257.8-380.3c270.5-199.1,706.9-173.5,923.9,56.2c79.1,81.7,178.6,293.5,153.1,319c-10.2,7.6-79.1,33.2-150.6,53.6l-135.3,40.8l-48.5-112.3c-127.6-288.4-510.4-288.4-653.3,0c-71.5,148-71.5,520.6,2.6,661c79.1,155.7,165.9,206.7,347.1,206.7c142.9,0,158.2-5.1,234.8-91.9c45.9-51,89.3-104.6,97-125.1c15.3-51,301.1,20.4,301.1,76.6c0,94.4-150.6,278.2-280.7,344.5C4447.9,3741.6,4200.3,3772.2,4065,3736.5z"/><path d="M5022.1,3703.3c2.6-17.9,125.1-377.7,275.6-798.8l275.6-765.6h176.1H5923l275.6,765.6c150.6,421.1,275.6,780.9,278.2,798.8c0,20.4-48.5,30.6-160.8,30.6h-158.2l-188.9-566.6c-102.1-313.9-193.9-576.8-204.2-587c-10.2-10.2-61.2,114.8-114.8,280.7c-53.6,163.3-142.9,428.8-199.1,587L5348.7,3734h-163.3C5070.6,3734,5022.1,3723.7,5022.1,3703.3z"/><path d="M2750.7,748V543.9h2245.8h2245.8V748v204.2H4996.6H2750.7V748z"/><path d="M2750.7-553.5v-204.2h2245.8h2245.8v204.2v204.2H4996.6H2750.7V-553.5z"/><path d="M2750.7-1829.6v-204.2h2245.8h2245.8v204.2v204.2H4996.6H2750.7V-1829.6z"/></g></g>
</svg>