<?xml version="1.0" encoding="UTF-8" standalone="no"?>
<!-- Generator: Adobe Illustrator 23.0.2, SVG Export Plug-In . SVG Version: 6.00 Build 0)  -->

<svg
   xmlns:dc="http://purl.org/dc/elements/1.1/"
   xmlns:cc="http://creativecommons.org/ns#"
   xmlns:rdf="http://www.w3.org/1999/02/22-rdf-syntax-ns#"
   xmlns:svg="http://www.w3.org/2000/svg"
   xmlns="http://www.w3.org/2000/svg"
   xmlns:sodipodi="http://sodipodi.sourceforge.net/DTD/sodipodi-0.dtd"
   xmlns:inkscape="http://www.inkscape.org/namespaces/inkscape"
   version="1.1"
   id="Lager_1"
   x="0px"
   y="0px"
   width="108.12061"
   height="107.31244"
   viewBox="0 0 108.12061 107.31244"
   xml:space="preserve"
   sodipodi:docname="Uppsala_University_seal.svg"
   inkscape:version="0.92.4 (5da689c313, 2019-01-14)"><metadata
   id="metadata14834"><rdf:RDF><cc:Work
       rdf:about=""><dc:format>image/svg+xml</dc:format><dc:type
         rdf:resource="http://purl.org/dc/dcmitype/StillImage" /><dc:title></dc:title></cc:Work></rdf:RDF></metadata><defs
   id="defs14832" /><sodipodi:namedview
   pagecolor="#ffffff"
   bordercolor="#666666"
   borderopacity="1"
   objecttolerance="10"
   gridtolerance="10"
   guidetolerance="10"
   inkscape:pageopacity="0"
   inkscape:pageshadow="2"
   inkscape:window-width="640"
   inkscape:window-height="480"
   id="namedview14830"
   showgrid="false"
   inkscape:zoom="0.83256899"
   inkscape:cx="13.121437"
   inkscape:cy="13.352446"
   inkscape:window-x="0"
   inkscape:window-y="0"
   inkscape:window-maximized="0"
   inkscape:current-layer="g14825" />
<style
   type="text/css"
   id="style14667">
	.st0{fill-rule:evenodd;clip-rule:evenodd;fill:#1D1D1B;}
	.st1{fill:#1D1D1B;}
	.st2{fill-rule:evenodd;clip-rule:evenodd;fill:#BD2B31;}
	.st3{fill:#BD2B31;}
	.st4{fill:none;}
</style>
<g
   id="g14825"
   transform="translate(-86.57,-47.77)">
	
	
	
	
	
	
	
	
	
	
	
	
	
	
	
	
	
	
	<path
   class="st2"
   d="m 119.74,136.21 c -0.86,-0.65 -1.78,-1.23 -2.73,-1.67 -1.04,-0.14 -2.16,0 -2.73,0.92 -0.61,0.68 -0.49,1.76 -0.18,2.54 0.23,0.49 -1.12,0.8 -1.23,1.21 -0.54,0.68 0,1.82 0.49,2.22 0.52,0.43 0.99,0.74 1.49,1.1 0.79,0.65 1.71,0.95 2.61,1.33 0.12,0.04 0.37,0.09 0.49,-0.08 0.3,-0.41 0.03,-0.31 -0.26,-0.71 -0.42,-0.7 0.43,-1.8 0.69,-2.36 0.5,-1.03 0.79,-2.04 1.83,-2.61 0.45,-0.2 1.19,0.16 1.4,-0.38 -0.42,-0.74 -1.29,-0.9 -1.87,-1.51 z m -3.94,5.4 c -0.53,0.26 -1,-0.5 -1.41,-0.73 -0.02,-0.28 0.04,-0.7 0.16,-0.95 0.2,-0.16 0.7,-0.69 0.95,-0.57 0.22,0.3 0.66,0.62 1,0.78 0.07,0.39 -0.53,1.16 -0.7,1.47 z m 1.7,-3.4 c -0.12,0.2 -0.36,0.81 -0.61,0.89 -0.41,-0.14 -0.81,-0.49 -1.14,-0.86 -0.7,-0.76 0.08,-1.42 0.2,-1.9 0.63,-0.43 1.85,-0.4 2.4,0.01 0.39,0.67 -0.69,1.33 -0.85,1.86 z"
   id="path14705"
   inkscape:connector-curvature="0"
   style="clip-rule:evenodd;fill:#bd2b31;fill-rule:evenodd" />
	<path
   class="st2"
   d="m 135.65,103.32 c -0.49,0.18 -0.05,0.93 -0.86,1.01 -0.65,0.06 -1.55,-0.53 -1.91,-1.16 0.28,-0.35 1.15,-0.5 1.13,-1.61 -0.02,-0.98 -0.25,-1.57 -1.43,-1.94 -0.81,-0.25 -1.78,-0.09 -2.68,-0.14 -0.34,0.05 -0.88,-0.08 -1.09,0.24 -0.12,0.27 0.3,0.27 0.46,0.51 0.2,1.19 0,3.18 -0.09,4.36 0,0.36 -0.76,0.52 -0.42,0.88 0.25,0.43 1.08,0.08 1.49,0.15 0.22,0.04 0.4,0.13 0.6,0 0.38,-0.27 0.03,-0.65 0.07,-1.02 0.03,-0.34 -0.39,-1.26 0.89,-0.47 0.71,0.44 1.26,1.17 2.09,1.37 0.5,0.09 1.42,0.26 1.78,-0.26 0.31,-0.5 0.55,-0.96 0.42,-1.59 -0.14,-0.2 -0.2,-0.44 -0.45,-0.33 z m -3.49,-0.98 c -0.19,0.41 -0.67,0.45 -1.08,0.41 -0.37,-0.17 -0.05,-1.25 -0.2,-1.53 -0.09,-0.21 -0.04,-0.58 0.09,-0.77 0.39,-0.15 0.98,-0.18 1.19,0.32 0.14,0.32 0.15,1.26 0,1.57 z"
   id="path14707"
   inkscape:connector-curvature="0"
   style="clip-rule:evenodd;fill:#bd2b31;fill-rule:evenodd" />
	<path
   class="st2"
   d="m 132.02,71.15 c -0.25,-0.31 -1.81,0.18 -2.11,0.32 -0.77,0.54 -0.34,1.53 -0.2,2.25 l -0.07,2.23 c -0.11,0.74 -0.32,1.44 -0.59,2.12 0.36,0.36 0.92,-0.01 1.35,-0.15 0.27,-0.21 0.7,-0.19 0.79,-0.55 -0.02,-0.2 -0.25,-0.14 -0.38,-0.22 -0.09,-0.14 -0.21,-0.25 -0.18,-0.45 0.02,-0.47 0.43,-0.74 0.75,-1.03 0.36,-0.14 1.72,-0.88 2.11,-0.6 0.21,0.16 0.32,0.35 0.34,0.61 0.11,0.36 -0.88,0.86 -0.12,1.08 0.76,0.22 1.83,-0.78 2.56,-1.07 l 0.04,-0.14 c -0.65,-0.6 -0.54,-0.14 -1.04,-0.88 0,0.02 -2.52,-3.07 -3.25,-3.52 z m 0.47,3.26 c -0.23,0.13 -1.54,0.82 -1.79,0.61 -0.22,-0.54 -0.35,-1.93 -0.03,-2.52 0.72,-0.32 1.42,0.99 1.82,1.33 0.09,0.16 0.09,0.43 0,0.58 z"
   id="path14709"
   inkscape:connector-curvature="0"
   style="clip-rule:evenodd;fill:#bd2b31;fill-rule:evenodd" />
	<path
   class="st2"
   d="m 125.08,78.52 c -0.31,-0.07 -0.61,0.02 -0.81,0.25 -0.14,0.25 -0.12,0.59 -0.09,0.88 -0.09,0.32 -0.29,0.66 -0.65,0.75 -0.32,0 -1.03,-0.04 -1.03,-0.04 0.26,-0.76 0.29,-1.92 -0.36,-2.55 -0.47,-0.5 -0.9,-0.86 -1.6,-0.72 -0.79,-0.02 -1.55,0.27 -1.94,0.99 -0.61,0.59 -1.47,1.05 -2.08,1.62 -0.12,0.18 0.04,0.38 0.16,0.47 0.59,-0.13 1.02,0.27 1.46,0.58 0.56,0.7 1.22,1.69 1.8,2.39 0.5,0.45 -0.18,1.1 0.34,1.55 0.12,0.12 0.36,0.14 0.5,0.07 l 1.72,-1.73 c 0.12,-0.31 -0.09,-0.72 -0.47,-0.55 -0.22,-0.02 -0.48,-0.11 -0.54,-0.4 0.83,-0.49 2,-0.18 2.9,-0.54 0.56,-0.25 1.13,-0.79 1.28,-1.4 0.09,-0.6 0,-1.28 -0.59,-1.62 z m -4.44,2.55 c -0.56,0 -1.22,-1.43 -1.71,-1.64 0.03,-0.22 0.49,-0.69 0.69,-0.76 0.84,-0.61 1.56,0.6 1.63,1.23 0.08,0.37 -0.41,0.96 -0.61,1.17 z"
   id="path14711"
   inkscape:connector-curvature="0"
   style="clip-rule:evenodd;fill:#bd2b31;fill-rule:evenodd" />
	<path
   class="st2"
   d="m 137.16,144.73 c -0.23,0.74 -0.52,1.46 -1.03,2.09 -0.54,0.7 -1.33,1.01 -2.1,1.23 -1.13,0.34 -1.53,-0.5 -2.43,0.45 -0.09,0.22 0.03,0.41 0.2,0.54 0.95,0.45 1.26,0.3 2.39,0.32 0.72,0.13 1.55,0.09 2.3,0.11 0.68,-0.32 1.45,-0.38 2.11,-0.72 0.68,-0.25 1.73,-1.18 2.52,-1.09 l 2.17,1.11 c 2.1,0.58 3.03,0.43 4.6,0.35 0.65,-0.08 1.11,-0.63 1.46,-1.17 0.03,-0.25 0.14,-0.63 -0.09,-0.83 -0.28,-0.33 -0.63,0.03 -0.99,-0.06 -1.15,-0.25 -2.41,-0.34 -3.2,-1.44 -0.24,-0.27 -0.46,-0.57 -0.66,-0.89 h -1.43 c 0.48,0.88 1.1,1.68 1.68,2.43 0.11,0.16 0.47,0.25 0.32,0.5 -0.43,0.15 -1.31,-0.58 -1.67,-0.81 -1.02,-0.51 -1.99,-1.91 -3.57,-1.04 -0.36,0.2 -0.58,0.33 -0.94,0.57 -0.2,0.13 -1.06,0.9 -1.32,0.82 l 0.75,-1.33 c 0.1,-0.39 0.24,-0.75 0.38,-1.12 h -1.45 z"
   id="path14713"
   inkscape:connector-curvature="0"
   style="clip-rule:evenodd;fill:#bd2b31;fill-rule:evenodd" />
	<path
   class="st2"
   d="m 132.5,139.97 c 0.03,0.01 0.05,0.02 0.08,0.02 1.12,0.14 2.39,0.07 3.45,0.32 0.52,0.49 1.32,0.52 1.62,1.26 0.14,0.35 0.18,0.81 0.07,1.19 -0.21,0.65 -0.36,1.32 -0.57,1.97 h 1.45 c 0.22,-0.58 0.44,-1.15 0.52,-1.79 0.09,-0.63 0.28,-1.38 -0.14,-2.01 -0.17,-0.31 -0.44,-0.64 -0.75,-0.96 z m 10.31,0 c -0.42,0.73 -0.69,1.52 -0.7,2.18 0.1,0.94 0.43,1.79 0.86,2.59 h 1.43 c -0.65,-1.02 -1.02,-2.23 -0.58,-3.43 0.38,-0.65 1.17,-0.65 1.87,-0.7 0.92,-0.26 1.88,-0.44 2.84,-0.64 z"
   id="path14715"
   inkscape:connector-curvature="0"
   style="clip-rule:evenodd;fill:#bd2b31;fill-rule:evenodd" />
	<path
   class="st2"
   d="m 113.46,130.45 c 0.01,0.02 0.03,0.03 0.04,0.05 1.15,1.49 2.77,2.28 4.06,3.56 1.91,1.26 3.92,2.28 5.94,3.27 1.17,0.58 2.41,0.94 3.67,1.31 1.63,0.82 3.61,0.77 5.33,1.32 h 5.73 c -0.78,-0.79 -1.82,-1.54 -2.24,-1.98 0.02,-0.23 0.16,-0.23 0.38,-0.32 0.9,0 3.12,1.39 3.82,0.65 0.21,-0.2 0.38,-0.65 0.72,-0.58 0.49,0.83 1.51,0.56 2.26,0.45 0.33,-0.03 1.01,-0.41 1.34,-0.49 0.05,0.07 0.13,0.18 0.07,0.27 -0.64,0.4 -1.3,1.16 -1.77,2 h 5.72 c 1.54,-0.32 3.07,-0.66 4.43,-1.38 1.89,-0.5 3.62,-1.38 5.38,-2.18 1.53,-0.9 3.06,-1.78 4.52,-2.81 1.24,-0.88 2.32,-2.01 3.41,-3.16 h -1.93 c -1.47,1.49 -3.29,2.32 -4.94,3.45 -2.39,1.37 -4.84,2.61 -7.43,3.53 -1.49,0.79 -3.24,0.97 -4.82,1.56 -0.4,0.05 -0.86,0.07 -1.08,-0.29 -0.08,-0.18 -0.16,-0.43 -0.02,-0.61 0.48,-0.4 1.29,-0.32 1.58,-1.08 0.06,-0.49 -0.34,-0.6 -0.74,-0.8 -0.72,-0.25 -1.44,0.16 -2.15,0.23 -0.83,0.27 -1.54,0.66 -2.55,0.35 -0.31,-0.22 -0.6,-0.43 -0.83,-0.72 l 0.02,-0.14 c 0.76,0.14 1.49,-0.12 2.29,-0.11 1.38,0.09 2.59,-0.43 3.99,-0.34 2.27,-0.13 4.34,-0.72 6.21,-1.78 1.96,-0.87 3.87,-1.87 5.63,-3.24 0.01,0 0.02,-0.01 0.03,-0.02 l -2.49,0.01 c -1.38,0.82 -2.76,1.62 -4.17,2.35 l -3,1.03 -0.86,0.2 -7.38,0.74 c -0.92,0.18 -1.8,-0.09 -2.71,-0.11 -1.24,-0.22 -2.54,-0.29 -3.76,-0.54 -4.23,-0.59 -8.35,-1.48 -11.93,-3.67 h -2.52 c 1.65,1.21 3.35,2.31 5.29,2.82 1.98,0.74 4.08,1.15 6.15,1.68 2.66,0.59 5.54,0.7 8.34,0.95 l 0.07,0.09 c -0.86,0.32 -0.88,1.94 -2.05,1.37 -1.21,-0.4 -2.07,-0.89 -3.26,-1.35 -0.56,0.03 -1.58,-0.32 -1.85,0.29 -0.14,0.34 -0.29,0.74 -0.16,1.14 0.09,0.18 0.3,0.27 0.5,0.2 0.2,-0.31 0.65,-0.09 0.94,-0.02 0.12,0.07 0.14,0.29 0.07,0.42 -0.92,0.63 -2.05,0.06 -3.08,0.07 -1.36,-0.43 -2.86,-0.54 -4.12,-1.21 -0.84,-0.27 -1.64,-0.66 -2.5,-0.86 -1.86,-0.99 -3.76,-1.83 -5.52,-3 -1.19,-0.73 -2.4,-1.59 -3.5,-2.57 z"
   id="path14717"
   inkscape:connector-curvature="0"
   style="clip-rule:evenodd;fill:#bd2b31;fill-rule:evenodd" />
	<path
   class="st2"
   d="m 103.19,111.4 c 0.47,1.7 1.04,3.36 1.67,5 0.81,1.3 1.08,2.82 1.84,4.14 2.11,3.38 4.19,6.75 6.76,9.91 h 2.56 c -1.25,-1.1 -2.37,-2.36 -3.2,-3.73 -2.21,-2.73 -3.9,-5.66 -5.3,-8.72 -0.34,-1.06 -1.03,-2.02 -1.39,-3.08 -0.5,-1.14 -0.89,-2.32 -1.24,-3.52 z m 4.78,0 0.55,2.03 c 0.47,1.53 1.22,2.95 1.69,4.48 0.81,2.34 2.64,4.26 4.07,6.33 1.15,1.71 2.86,3.15 4.35,4.67 0.69,0.51 1.37,1.03 2.07,1.53 h 2.52 c -0.48,-0.3 -0.95,-0.61 -1.42,-0.96 -1.98,-1.37 -3.95,-3.02 -5.5,-4.91 -1.19,-1.24 -2.16,-2.63 -3.15,-3.99 -1.01,-1.03 -1.35,-2.36 -2.03,-3.53 -0.64,-1.83 -1.23,-3.69 -1.49,-5.67 z m 8.57,0 c 0.57,1.04 1.22,2.05 1.76,3.11 0.95,1.76 2.64,3.25 3.9,4.84 0.97,0.97 2.07,1.82 3.02,2.73 2.9,2.37 6.35,3.38 9.75,4.55 1.87,0.54 3.85,0.77 5.88,0.92 1.87,0.04 3.6,-0.29 5.33,-0.59 0.72,0.11 1.24,-0.31 1.87,-0.45 1.45,-0.14 2.61,-1.04 3.97,-1.47 1.51,-0.7 2.95,-1.64 4.46,-2.36 1.8,-1.3 3.1,-3.23 4.73,-4.78 0.72,-1.36 2.05,-2.46 2.59,-3.9 0.37,-0.91 0.93,-1.72 1.38,-2.59 h -1.61 c -0.38,0.78 -0.95,1.49 -1.49,2.19 -0.65,0.14 -1.1,-0.54 -1.51,-0.97 -0.35,-0.4 -0.68,-0.82 -1.02,-1.22 h -2.04 c 0.78,0.79 1.57,1.56 2.4,2.32 0.45,0.66 1.27,1.44 0.66,2.32 -0.63,1.44 -2.1,2.43 -3.24,3.56 -0.22,0.2 -0.52,0.27 -0.83,0.2 -0.99,-1.65 -1.75,-3.43 -2.63,-5.14 -0.47,-0.72 -0.7,-1.56 -1.1,-2.32 -0.15,-0.32 -0.35,-0.63 -0.55,-0.93 h -1.57 c 0.22,0.47 0.45,0.93 0.7,1.38 0.77,1.26 1.2,2.66 1.87,3.97 0.8,1.22 1.43,2.52 2.3,3.72 0.07,0.16 0.09,0.32 0,0.49 -0.9,0.86 -2.03,1.31 -3.13,1.78 -0.88,0.27 -1.74,0.65 -2.72,0.63 -0.27,-0.07 -0.5,-0.27 -0.52,-0.58 -0.58,-2.99 -0.63,-6.22 -1.15,-9.25 -0.1,-0.7 -0.13,-1.43 -0.2,-2.16 h -3.6 l 0.4,0.27 c 0.77,0.66 1.89,1.24 1.83,2.39 0.36,1.31 0.56,3.17 -0.32,4.3 -0.52,1.35 -1.53,2.9 -2.97,3.47 -1.3,0.79 -4.05,0.86 -5.23,-0.02 -1.94,-1.13 -2.88,-5.58 -1.91,-7.47 0.4,-0.97 1.54,-2.22 2.76,-2.95 h -3.36 c -1.74,1.62 -2.6,3.71 -2.73,6.04 l -0.33,2.26 c -0.7,0.79 -0.8,1.87 -1.52,2.61 -1.06,0.15 -1.83,-0.63 -2.68,-1.13 -0.56,-0.52 -0.48,-1.44 -0.21,-2.08 0.56,-1.51 1.8,-2.73 2.3,-4.26 0.69,-1.1 1.06,-2.31 1.74,-3.42 h -1.36 c -0.59,1.3 -1.19,2.61 -1.91,3.87 -0.58,0.74 -0.73,1.65 -1.28,2.41 -0.49,0.5 -0.5,1.49 -1.38,1.56 -1.35,-0.41 -2.5,-1.55 -3.43,-2.66 -0.25,-1.22 0.59,-2.18 1.15,-3.15 0.57,-0.66 1.08,-1.35 1.6,-2.03 h -1.78 c -0.38,0.44 -0.77,0.86 -1.22,1.22 -0.54,0.27 -0.87,1.04 -1.57,0.81 -0.54,-0.57 -1.01,-1.28 -1.35,-2.03 z m 55.52,0 c -0.03,0.16 -0.07,0.32 -0.1,0.49 -0.43,1.13 -0.77,2.3 -1.25,3.4 -0.61,1.17 -0.92,2.46 -1.73,3.56 -0.93,1.37 -1.74,2.79 -2.91,4.03 l -1.45,1.64 c -1.37,0.9 -2.46,2.38 -3.83,3.31 -0.79,0.56 -1.46,1.29 -2.3,1.74 -0.49,0.3 -0.97,0.59 -1.46,0.89 h 2.49 c 1.05,-0.65 1.99,-1.56 3.03,-2.27 2.09,-2.41 4.89,-4.42 6.51,-7.11 1.77,-2.25 2.93,-4.75 3.95,-7.3 0.4,-0.75 0.69,-1.56 0.93,-2.38 z m 4.37,0 c -0.14,0.43 -0.29,0.86 -0.43,1.29 -0.92,2.34 -1.84,4.68 -3.22,6.84 -1.17,2.37 -2.78,4.55 -4.32,6.76 -1.02,1.33 -2.46,2.34 -3.56,3.53 -0.18,0.22 -0.37,0.43 -0.57,0.63 h 1.93 c 0.73,-0.78 1.46,-1.56 2.25,-2.27 0.72,-0.93 1.46,-1.89 2.27,-2.79 1.2,-1.62 2.39,-3.29 3.21,-5.07 0.6,-1.03 1.19,-2.05 1.68,-3.13 1.06,-1.78 1.65,-3.77 2.18,-5.79 z m -42.33,9.73 c 0.63,1.37 2.08,1.78 3.27,2.35 1.01,0.16 1.87,0.65 2.9,0.79 0.25,0.09 0.21,0.36 0.23,0.57 -0.29,0.81 -1.35,0.32 -2.05,0.43 -1.15,-0.36 -2.39,-0.45 -3.47,-0.97 -0.97,-0.2 -1.9,-0.52 -2.71,-1.15 -0.18,-0.11 -0.07,-0.32 -0.04,-0.49 0.23,-0.68 0.49,-1.37 0.85,-2 0.07,-0.23 0.26,-0.49 0.26,-0.49 z m 13.55,-1.25 c 0.15,1.33 0.38,2.62 0.51,3.96 0,0.34 -0.34,0.54 -0.6,0.68 -0.74,0.42 -1.6,0.5 -2.46,0.63 -0.86,0.03 -1.83,0.36 -2.64,-0.02 -0.29,-0.36 -0.16,-0.86 0.07,-1.21 0.9,-0.83 2.14,-0.79 2.99,-1.76 0.9,-0.64 1.17,-1.62 1.73,-2.44 0.13,-0.28 0.4,-0.03 0.4,0.16 z"
   id="path14719"
   inkscape:connector-curvature="0"
   style="clip-rule:evenodd;fill:#bd2b31;fill-rule:evenodd" />
	<path
   class="st2"
   d="m 102.17,106.64 c 0.24,1.63 0.59,3.21 1.02,4.76 h 1.69 c -0.46,-1.57 -0.84,-3.18 -1.27,-4.76 z m 4.68,0 c 0.04,0.22 0.05,0.42 0.02,0.57 -0.16,0.63 0.66,2.29 0.74,2.88 l 0.35,1.32 h 1.64 c -0.02,-0.15 -0.04,-0.29 -0.05,-0.43 -0.18,-0.88 -0.47,-1.71 -0.54,-2.62 0.18,-0.86 1.13,-0.43 1.76,-0.5 0.58,0 1.04,-0.29 1.62,-0.29 0.97,0.13 2.43,-0.41 2.86,0.81 0.27,1.08 0.75,2.07 1.28,3.04 h 2.9 c -0.29,-0.64 -0.48,-1.32 -0.55,-1.99 0.07,-0.4 0.09,-0.93 0.56,-1.04 1.1,-0.47 2.69,0.21 3.9,0.01 l 0.97,0.06 c 0.4,0.05 0.83,0.11 1.1,0.38 -0.03,0.57 -0.54,0.95 -0.81,1.44 -0.35,0.37 -0.68,0.77 -1.03,1.15 h 1.78 c 0.54,-0.72 1.09,-1.44 1.73,-2.12 1.15,-1.12 2.95,-1.35 4.46,-0.85 0.15,0.11 0.18,0.31 0.18,0.47 -0.09,0.63 -0.58,1.1 -0.75,1.71 -0.12,0.26 -0.24,0.53 -0.36,0.79 h 1.36 c 0.09,-0.14 0.18,-0.28 0.28,-0.42 0.56,-0.97 0.99,-2.07 2.03,-2.73 1.12,-0.5 2.48,-0.16 3.22,0.81 0.34,0.16 0.49,-0.23 0.76,-0.27 0.56,-0.18 1.12,-0.25 1.64,0.04 0.21,0.27 0.48,0.45 0.84,0.4 0.65,-0.02 1.12,-0.49 1.71,-0.67 0.92,-0.12 2.05,-0.27 2.87,0.18 0.43,0.5 0.41,1.19 0.56,1.82 0.04,0.18 0.04,0.41 -0.09,0.56 -0.47,0.22 -0.35,-0.28 -1.13,-0.55 0,0 -1.27,-0.55 -1.78,-0.76 -0.92,-0.41 -2.01,-0.07 -3.02,-0.13 -1.35,0.36 -2.96,0.48 -4.09,1.41 -0.12,0.1 -0.24,0.21 -0.36,0.32 h 3.36 c 0.59,-0.35 1.19,-0.58 1.74,-0.61 1.24,-0.07 2.45,0.13 3.54,0.5 l 0.16,0.11 h 3.6 c -0.03,-0.35 -0.07,-0.7 -0.13,-1.04 -0.13,-0.43 -0.09,-0.97 0.05,-1.37 0.45,-0.49 1.27,-0.29 1.67,0.18 0.49,0.71 0.87,1.47 1.24,2.23 h 1.57 c -0.37,-0.56 -0.72,-1.12 -0.74,-1.82 0.01,-0.27 0.25,-0.47 0.49,-0.59 0.89,-0.12 1.88,-0.05 2.78,0.02 l 0.67,0.31 c 0.71,0.7 1.39,1.4 2.08,2.09 h 2.04 c -0.5,-0.59 -1.03,-1.16 -1.67,-1.66 -0.25,-0.34 -0.68,-0.64 -0.65,-1.1 l 0.27,-0.18 c 1.89,-0.09 3.79,-0.6 5.65,-0.09 l 0.66,0.25 0.15,0.25 c 0.19,0.95 -0.01,1.77 -0.38,2.52 h 1.61 c 0.19,-0.37 0.36,-0.75 0.48,-1.15 0.4,-0.84 0.58,-1.76 1.13,-2.54 1.15,-0.4 2.51,-0.29 3.78,-0.4 l 2.25,0.03 c 0.34,0.31 0.05,0.81 -0.02,1.19 -0.23,0.96 -0.53,1.89 -0.73,2.86 h 1.87 c 0.35,-1.17 0.61,-2.37 1.06,-3.49 0.2,-0.14 0.34,-0.72 0.43,-1.27 h -68.57 z m 70.69,0 c -0.01,0.07 -0.02,0.12 -0.02,0.17 -0.16,1.61 -0.59,3.11 -1.08,4.58 h 1.42 c 0.07,-0.26 0.14,-0.53 0.21,-0.79 0.31,-1.3 0.51,-2.63 0.73,-3.96 z"
   id="path14721"
   inkscape:connector-curvature="0"
   style="clip-rule:evenodd;fill:#bd2b31;fill-rule:evenodd" />
	<path
   class="st2"
   d="m 101.55,101.87 c 0.06,1.54 0.04,3.11 0.58,4.44 0.02,0.11 0.03,0.22 0.05,0.33 h 1.44 c -0.06,-0.22 -0.12,-0.43 -0.19,-0.65 -0.09,-0.38 -0.25,-0.92 0.11,-1.22 0.5,-0.31 0.93,0.89 1.47,0.4 0.34,-0.49 1.19,-1.12 1.34,-0.51 0.17,0.69 0.42,1.43 0.52,1.98 h 68.57 c 0.07,-0.45 0.12,-0.89 0.13,-1.05 0.01,-0.22 0,-0.45 0.15,-0.63 0.33,-0.16 0.67,0.24 1.05,0.3 0.37,0.05 0.79,-0.24 1.06,-0.11 0.2,0.3 -0.17,1.05 -0.28,1.5 h 1.26 c 0.12,-0.69 0.23,-1.39 0.37,-2.07 0.25,-0.86 0.27,-1.77 0.3,-2.69 h -1.78 c 0.06,0.04 0.12,0.08 0.17,0.13 l 0.12,0.49 c 0.14,0.34 -0.04,0.66 -0.23,0.92 -0.31,0.27 -0.65,0.5 -1.06,0.41 -0.43,-0.04 -0.74,-0.45 -0.96,-0.79 -0.07,-0.2 0.18,-1 0.3,-1.16 0,0 0,0 0.01,-0.01 h -2.28 c 0.08,1.11 0.4,2.12 0.25,3.27 -0.12,0.31 -0.48,0.43 -0.77,0.52 -0.61,0.18 -1.22,-0.05 -1.87,0.02 -1.96,0.07 -3.94,0.36 -5.88,0.18 -0.9,0.09 -1.94,0.02 -2.84,0.16 -0.88,0.29 -1.94,0.09 -2.88,0.25 -0.88,-0.14 -1.75,0.07 -2.65,-0.02 -1.41,-0.2 -2.99,-0.14 -4.39,0.03 -2.35,-0.18 -4.76,-0.03 -7.18,-0.11 -1.35,-0.2 -2.86,0.05 -4.3,0.04 -2.19,-0.16 -4.37,0.14 -6.51,0 -3.53,-0.09 -7.16,0 -10.7,-0.06 -1.51,0.04 -2.86,-0.47 -4.43,-0.25 -2.41,-0.2 -4.96,-0.09 -7.21,-0.7 -0.93,0.09 -1.98,0.04 -2.9,0.05 -0.25,-0.02 -0.32,-0.31 -0.38,-0.5 -0.18,-0.97 -0.59,-1.91 -0.78,-2.89 h -2.46 c 0.1,0.22 0.14,0.4 0.06,0.44 l -0.61,0.81 c -0.27,0.25 -0.89,0.22 -1.3,0.15 -0.29,0.02 -0.4,-0.32 -0.54,-0.52 -0.08,-0.12 -0.16,-0.53 -0.21,-0.87 h -1.74 z"
   id="path14723"
   inkscape:connector-curvature="0"
   style="clip-rule:evenodd;fill:#bd2b31;fill-rule:evenodd" />
	<path
   class="st2"
   d="m 101.71,97.11 c -0.2,1 -0.23,2.09 -0.29,3.13 0.07,0.53 0.1,1.08 0.12,1.63 h 1.74 c -0.03,-0.22 -0.04,-0.41 -0.03,-0.5 0.09,-0.14 0.31,-0.57 0.47,-0.61 0.36,-0.05 1.05,-0.04 1.34,0.1 0.25,0.07 0.63,0.6 0.81,1 h 2.46 c -0.14,-0.72 -0.18,-1.45 0.08,-2.22 0.14,-0.29 0.43,-0.6 0.74,-0.66 2.41,0.02 4.87,-0.13 7.32,-0.04 0.5,-0.21 1.06,0.06 1.6,-0.07 1.78,-0.25 3.52,0.11 5.34,0.05 1.67,-0.31 3.17,0.45 4.84,0.38 1.45,-0.49 3.29,-0.22 4.84,-0.16 0.9,0 1.82,-0.29 2.68,-0.02 0.95,0.13 1.98,0.05 2.88,-0.14 1.8,0.09 3.58,-0.11 5.36,-0.16 0.5,-0.09 0.95,0.12 1.46,0.02 1.42,-0.14 2.77,0 4.15,-0.2 2.3,0.16 4.77,0 7.05,0.21 0.7,-0.15 1.49,-0.02 2.19,-0.02 3.33,-0.27 6.89,-0.25 10.27,-0.25 1.06,-0.16 2.22,-0.05 3.29,-0.18 0.31,0.04 0.62,0.13 0.85,0.32 0.43,0.72 0.37,1.66 0.45,2.53 -0.01,0.21 0,0.41 0.01,0.61 h 2.28 c 0.44,-0.36 1.19,-0.3 1.65,0 h 1.78 c 0.01,-0.3 0.03,-0.6 0.05,-0.9 -0.05,-1.3 -0.14,-2.59 -0.28,-3.86 h -1.37 c 0.21,1.61 0.35,3.47 0.35,3.47 0,0 -0.54,-0.43 -0.91,-0.39 -0.38,0.04 -1.29,0.54 -1.32,0.47 0.02,-0.92 -0.04,-1.89 -0.22,-2.79 -0.11,-0.23 -0.15,-0.5 -0.18,-0.76 h -3.57 c -0.09,0.04 -0.18,0.08 -0.25,0.13 -0.85,0.07 -1.74,0.06 -2.54,0.18 -0.88,-0.2 -1.73,0.11 -2.61,0 l -0.11,-0.11 c -0.01,-0.07 -0.01,-0.14 -0.01,-0.2 h -1.25 c -0.01,0.08 -0.03,0.15 -0.04,0.22 -0.27,0.4 -0.81,0.31 -1.21,0.25 -0.29,-0.02 -0.5,-0.2 -0.78,-0.27 L 162,97.21 c -0.09,-0.03 -0.18,-0.07 -0.27,-0.11 h -1.77 c 0.23,0.14 0.45,0.28 0.65,0.47 0.11,0.23 -0.19,0.2 -0.29,0.25 -0.83,-0.13 -1.71,-0.14 -2.59,-0.16 -0.5,-0.18 -0.99,-0.45 -1.56,-0.45 -0.08,-0.04 -0.16,-0.07 -0.23,-0.11 h -1.58 c 0.22,0.16 0.45,0.29 0.69,0.4 -0.07,0.14 -0.31,0.09 -0.45,0.14 -0.72,-0.07 -1.49,-0.02 -2.16,-0.23 -0.23,-0.09 -0.46,-0.2 -0.69,-0.31 h -2.7 c 0,0.05 -0.01,0.09 -0.02,0.13 -0.28,0.2 -0.61,0.27 -0.97,0.29 -0.3,0 -0.64,0.04 -0.86,-0.2 -0.06,-0.07 -0.12,-0.15 -0.18,-0.22 h -1.58 c -0.08,0.2 -0.22,0.41 -0.47,0.4 -0.34,-0.05 -0.7,-0.11 -0.93,-0.4 h -1.26 c 0,0.1 -0.01,0.19 -0.02,0.29 -0.09,0.27 -0.38,0.23 -0.6,0.29 -0.32,0 -0.46,-0.32 -0.57,-0.58 h -1.04 c 0,0.34 -0.09,0.68 -0.37,0.87 -0.25,0 -0.65,0.07 -0.77,-0.23 -0.18,-0.19 -0.2,-0.41 -0.18,-0.63 h -1.1 c -0.1,0.37 -0.28,0.68 -0.69,0.85 -0.52,0.05 -0.99,-0.02 -1.46,-0.16 -0.11,-0.09 -0.09,-0.29 -0.01,-0.4 0.07,-0.1 0.14,-0.2 0.21,-0.29 h -1.38 c -0.06,0.09 -0.12,0.18 -0.18,0.27 -0.38,0.6 -1.14,0.2 -1.69,0.32 -0.18,0 -0.13,-0.25 -0.11,-0.38 0.03,-0.07 0.06,-0.15 0.1,-0.22 h -1.4 c -0.12,0.14 -0.24,0.27 -0.35,0.4 -0.86,0.45 -2.05,0.36 -3.04,0.25 -0.16,-0.09 -0.25,-0.29 -0.14,-0.45 0.1,-0.07 0.21,-0.13 0.31,-0.2 h -3.16 c -1,0.3 -2.19,0.32 -3.17,0 h -7.24 c -0.22,0.09 -0.54,-0.04 -0.76,0.06 -0.88,0.18 -1.85,0.05 -2.75,0.03 -0.41,-0.01 -0.82,-0.04 -1.21,-0.09 h -3.35 c -0.16,0.83 -0.31,1.67 -0.47,2.49 -0.31,0.2 -0.58,-0.16 -0.88,-0.27 -0.29,-0.31 -0.63,-0.72 -1.1,-0.5 -0.31,0.07 -0.63,0.14 -0.83,0.41 -0.12,0.04 -0.23,-0.03 -0.27,-0.16 0.02,-0.67 0.09,-1.32 0.18,-1.97 h -1.58 z"
   id="path14725"
   inkscape:connector-curvature="0"
   style="clip-rule:evenodd;fill:#bd2b31;fill-rule:evenodd" />
	<path
   class="st2"
   d="m 102.56,92.35 c -0.13,0.57 -0.22,1.16 -0.2,1.8 -0.46,0.66 -0.41,1.55 -0.5,2.37 -0.06,0.19 -0.11,0.39 -0.15,0.59 h 1.62 c 0.18,-1.26 0.44,-2.49 0.64,-3.75 0.09,-0.33 0.17,-0.67 0.24,-1.01 z m 5.01,0 c -0.21,1.01 -0.43,2.01 -0.53,3.06 -0.12,0.57 -0.23,1.13 -0.34,1.71 h 3.35 c -0.43,-0.05 -0.85,-0.13 -1.27,-0.25 -0.25,-0.32 -0.47,-0.65 -0.38,-1.1 -0.04,-1.23 0.24,-2.34 0.58,-3.41 z m 8.84,0 c -0.56,1.5 -0.88,3.1 -1.46,4.6 -0.05,0.08 -0.11,0.13 -0.18,0.15 h 7.24 c -0.03,-0.01 -0.07,-0.02 -0.1,-0.03 -0.16,-0.11 -0.05,-0.32 0,-0.45 1.56,-1.26 3.51,-1.62 5.23,-2.5 1.1,-0.27 1.98,-1.06 3.06,-1.4 0.3,-0.1 0.58,-0.23 0.84,-0.38 h -2.15 c -0.42,0.2 -0.84,0.38 -1.29,0.52 -1.6,0.61 -3.18,1.26 -4.71,2.03 -1.22,0.5 -2.34,1.42 -3.76,1.22 -0.18,-0.11 -0.31,-0.29 -0.18,-0.47 1.26,-1.1 2.91,-1.33 4.35,-2.05 0.46,-0.18 1.67,-0.69 3.03,-1.26 h -3.13 c -1.28,0.35 -2.47,1.01 -3.86,1.06 -0.2,-0.09 -0.49,-0.21 -0.52,-0.47 -0.03,-0.23 0.03,-0.42 0.12,-0.59 z m 16.68,0 c -0.27,0.19 -0.58,0.38 -0.94,0.61 -1.97,1.58 -4.22,2.52 -6.29,3.88 -0.21,0.11 -0.44,0.19 -0.67,0.27 h 3.16 c 1.76,-1.2 3.33,-2.86 5.09,-4.08 0.3,-0.44 0.64,-0.53 0.83,-0.69 z m 2.31,0 c -0.03,0.02 -0.05,0.04 -0.08,0.07 -0.41,0.52 -0.78,1.07 -1.09,1.65 -0.76,1.06 -1.76,2.04 -2.67,3.04 h 1.4 c 0.36,-0.7 1.03,-1.16 1.59,-1.78 0.41,-0.63 0.88,-1.12 1.24,-1.78 0.25,-0.16 0.4,-0.45 0.38,-0.77 0,-0.21 -0.05,-0.17 -0.19,-0.33 -0.1,-0.02 -0.19,-0.07 -0.27,-0.1 z m 2.18,0 c 0.54,0.28 1.1,0.51 1.71,0.61 0.58,-0.04 1.19,0.07 1.71,-0.09 0.31,0.23 0.81,-0.11 1.01,0.29 0.07,0.58 0.38,1.04 0.58,1.56 -0.16,0.85 0.26,1.56 0.24,2.39 h 1.26 c -0.03,-0.04 -0.05,-0.08 -0.08,-0.12 -0.27,-1.01 -0.59,-2.01 -0.65,-3.11 -0.14,-0.34 -0.36,-0.67 -0.34,-1.03 0.25,-0.2 0.49,0.12 0.61,0.31 0.58,1.31 1.96,2.3 1.89,3.86 -0.01,0.03 -0.02,0.06 -0.03,0.09 h 1.58 c -1.09,-1.44 -1.83,-3.01 -2.79,-4.49 -0.05,-0.13 0.03,-0.22 0.13,-0.27 z m 7.15,0 c 0.21,0.13 0.22,0.53 0.57,0.56 0.72,0.59 1.44,1.35 2.12,2.09 0.63,0.59 1.12,1.28 1.62,1.89 0.02,0.07 0.05,0.15 0.06,0.23 h 2.7 c -0.7,-0.36 -1.35,-0.81 -2.01,-1.27 -1.35,-1.05 -2.41,-2.49 -3.79,-3.48 z m 2.43,0 c 1.14,0.45 1.99,1.5 3.08,2.08 1.06,0.74 2.3,1.03 3.26,2.01 0.3,0.22 0.6,0.46 0.91,0.67 h 1.58 c -1.36,-0.7 -2.57,-1.65 -3.78,-2.68 -1.24,-0.23 -2.16,-1.24 -3.2,-1.98 -0.06,-0.03 -0.12,-0.07 -0.19,-0.1 z m 3.48,0 c 0.17,0.08 0.34,0.16 0.52,0.19 0.94,0.31 1.87,0.54 2.69,1.13 0.61,0.22 1.08,0.79 1.69,1.04 1.06,0.72 2.48,0.52 3.4,1.58 0.31,0.37 0.7,0.58 1.07,0.81 h 1.77 c -0.46,-0.26 -0.79,-0.76 -1.28,-1 -0.39,-0.12 -0.79,-0.36 -1.07,-0.68 -0.74,-0.11 -1.3,-0.65 -1.96,-0.92 -0.66,-0.39 -1.38,-0.67 -2.07,-0.99 -0.6,-0.55 -1.33,-0.79 -1.99,-1.17 z m 4.2,0 c 0.1,0.04 0.2,0.07 0.29,0.11 l 0.54,0.07 c 0.41,0.52 1.14,0.29 1.64,0.56 0.9,0.31 1.87,0.4 2.63,1.01 1.17,0.22 2.22,0.7 3.34,0.95 0.63,0.45 1.33,0.84 1.89,1.37 0.1,0.19 0.1,0.46 0.07,0.7 h 1.25 c -0.08,-1.16 -0.2,-2.32 -0.83,-3.25 -0.2,-0.49 -0.36,-1.01 -0.55,-1.51 h -2.02 c 0.45,0.35 0.51,0.92 0.58,1.45 -0.09,0.18 -0.25,0.34 -0.49,0.27 -1.76,-0.34 -3.27,-1.24 -4.97,-1.73 z m 17.31,0 c 0.09,0.21 0.19,0.42 0.28,0.63 0.23,1.15 0.96,2.1 1.01,3.33 -0.07,0.73 -0.87,0.61 -1.42,0.81 h 3.57 c -0.04,-0.41 -0.05,-0.83 -0.24,-1.18 -0.31,-1.2 -0.62,-2.4 -0.98,-3.58 h -2.22 z m 4.84,0 c 0.25,1.03 0.46,2.07 0.61,3.14 0.1,0.42 0.2,1 0.28,1.62 h 1.37 c -0.14,-1.31 -0.35,-2.59 -0.64,-3.84 -0.07,-0.31 -0.14,-0.61 -0.22,-0.91 z m -40.77,4.76 c 0.67,-0.93 1.44,-1.83 1.92,-2.86 0.25,-0.45 -0.22,-0.72 -0.29,-1.1 -0.14,-0.13 -0.32,-0.22 -0.52,-0.18 -0.41,0.49 -0.54,1.1 -0.83,1.64 -0.42,0.87 -1.11,1.66 -1.66,2.49 z m 3.06,0 c 0.03,-0.24 0.14,-0.5 0.18,-0.72 0.29,-0.68 0.25,-1.51 0.47,-2.23 0.02,-0.22 -0.16,-0.41 -0.36,-0.49 -0.32,-0.03 -0.65,0.02 -0.79,0.32 -0.36,0.49 -0.07,1.14 -0.21,1.69 -0.22,0.41 -0.24,0.95 -0.38,1.42 h 1.09 z m 2.36,0 c -0.02,-0.05 -0.04,-0.1 -0.06,-0.14 -0.23,-0.84 0.05,-1.71 0.18,-2.52 -0.04,-0.31 -0.22,-0.65 -0.56,-0.74 -0.25,-0.04 -0.52,0.04 -0.61,0.27 -0.11,0.47 -0.29,1.1 0.07,1.51 0.05,0.42 -0.09,0.74 -0.13,1.1 0.04,0.16 0.06,0.34 0.06,0.52 z"
   id="path14727"
   inkscape:connector-curvature="0"
   style="clip-rule:evenodd;fill:#bd2b31;fill-rule:evenodd" />
	<path
   class="st2"
   d="m 103.36,89.37 c -0.01,0.04 -0.03,0.09 -0.04,0.13 -0.18,0.97 -0.53,1.88 -0.76,2.85 h 1.66 c 0.14,-0.62 0.26,-1.24 0.39,-1.86 l 0.42,-1.12 z m 4.92,0 c -0.11,0.36 -0.22,0.72 -0.34,1.07 -0.1,0.65 -0.24,1.28 -0.37,1.91 h 1.42 c 0.31,-0.99 0.67,-1.95 0.89,-2.98 z m 9.67,0 c -0.42,0.64 -0.7,1.35 -1.13,1.98 -0.16,0.32 -0.29,0.65 -0.41,0.99 h 2.55 c 0.08,-0.14 0.19,-0.27 0.29,-0.4 0.61,-0.16 1.12,-0.57 1.73,-0.77 1.9,-0.06 5.85,-1.25 7.96,-1.81 h -4.86 c -1.01,0.18 -2.04,0.32 -3.09,0.42 -0.29,-0.11 -0.63,-0.07 -0.9,-0.2 0.02,-0.08 0.04,-0.15 0.07,-0.22 z m 14.09,0 c -0.39,0.11 -0.75,0.22 -0.87,0.21 -1.13,0.23 -6.77,2.28 -7.81,2.73 -0.04,0.01 -0.09,0.02 -0.13,0.04 h 3.13 c 2.09,-0.87 4.56,-1.89 5.29,-2.14 0.21,-0.19 1.34,-0.56 1.71,-0.83 z m 2.65,0 c 0.23,0.88 0.69,1.66 1.52,2.24 0.46,0.24 0.9,0.51 1.37,0.74 h 6.82 c 0.04,-0.02 0.08,-0.03 0.12,-0.04 0.09,-0.01 0.15,0.01 0.21,0.04 H 146 c -0.04,-0.02 -0.08,-0.05 -0.11,-0.07 -0.2,-0.11 -0.36,-0.34 -0.36,-0.58 0.02,-0.12 0.13,-0.21 0.25,-0.25 0.47,0.02 0.72,0.61 1.12,0.81 0.09,0.03 0.18,0.06 0.26,0.09 h 1.65 c -0.82,-0.46 -1.57,-1.13 -2.46,-1.48 -0.16,-0.12 -0.34,-0.34 -0.19,-0.54 0.13,-0.33 0.31,-0.64 0.45,-0.96 h -0.99 c -0.22,0.54 -0.56,1.04 -1.05,1.46 -0.59,0.52 -1.4,0.47 -2.14,0.64 -1.74,0.41 -3.36,-0.14 -4.66,-1.15 -0.49,-0.2 -0.8,-0.55 -1.03,-0.95 z m 15.81,0 c 0.31,0.08 0.61,0.16 0.89,0.28 1.62,0.47 3.44,0.51 5.04,1.04 1.26,0.2 2.39,0.68 3.65,0.92 0.96,0.25 1.92,0.49 2.91,0.67 0.04,0.02 0.08,0.05 0.11,0.07 h 2.02 c -0.2,-0.53 -0.43,-1.06 -0.77,-1.53 -0.14,-0.51 -0.39,-0.98 -0.66,-1.44 h -1.59 c 0.28,0.5 0.6,0.99 0.65,1.59 -0.05,0.16 -0.23,0.25 -0.4,0.25 -0.82,-0.12 -1.58,-0.47 -2.37,-0.66 -1.17,-0.18 -2.2,-0.72 -3.42,-0.72 -0.65,-0.06 -1.23,-0.28 -1.82,-0.45 z m 20.56,0 c 0.36,1 0.68,2.01 1.09,2.98 h 2.22 c -0.32,-1.02 -0.68,-2.02 -1.14,-2.97 z m 5.08,0 c 0.31,0.98 0.61,1.97 0.85,2.98 h 1.4 c -0.28,-1.02 -0.65,-2 -1.04,-2.98 z m -45.09,2.98 c 0.72,-0.41 1.33,-0.95 2.05,-1.28 0.37,-0.17 -0.03,-0.77 -0.33,-0.66 -1.35,0.51 -2.56,1.33 -3.86,1.94 z m 3.21,0 c 0.11,-0.09 0.17,-0.19 0.14,-0.38 -0.23,-0.24 -0.51,-0.33 -0.63,-0.14 -0.21,0.19 -0.43,0.35 -0.68,0.52 z m 1.45,0 c -0.11,-0.04 -0.21,-0.07 -0.31,0 z m 17.69,0 c -0.05,-0.03 -0.1,-0.06 -0.15,-0.09 -0.9,-0.18 -1.75,-0.49 -2.54,-0.94 -0.73,-0.09 -1.36,-0.43 -2.08,-0.56 -0.23,0 -0.54,-0.05 -0.57,0.23 0.07,0.77 0.85,0.6 1.38,0.85 0.42,0.04 0.82,0.3 1.21,0.49 z m 4.82,0 c -0.02,-0.01 -0.04,-0.01 -0.06,-0.02 -1.35,-0.47 -2.73,-0.86 -4.1,-1.29 -1.17,-0.29 -2.39,-0.4 -3.46,-0.95 -0.28,-0.11 -0.66,-0.07 -0.92,0.05 -0.14,0.07 -0.21,0.27 -0.1,0.4 0.63,0.56 1.56,0.38 2.23,0.83 1,0.36 2.03,0.65 3.03,0.99 z"
   id="path14729"
   inkscape:connector-curvature="0"
   style="clip-rule:evenodd;fill:#bd2b31;fill-rule:evenodd" />
	<path
   class="st2"
   d="m 104.52,86.38 c -0.45,0.97 -0.84,1.97 -1.16,2.99 h 1.67 l 0.59,-1.56 c 0.28,-0.47 0.53,-0.94 0.77,-1.43 z m 4.73,0 c -0.39,0.97 -0.67,1.98 -0.97,2.99 h 1.6 c 0,-0.01 0,-0.02 0.01,-0.03 0.18,-1.05 0.62,-2 1.04,-2.96 z m 10.93,0 c -0.19,0.22 -0.37,0.45 -0.54,0.68 -0.52,0.52 -1.06,1.08 -1.28,1.76 -0.16,0.18 -0.29,0.36 -0.42,0.55 h 2.21 c 0.17,-0.43 0.5,-0.61 0.86,-1.01 0.43,-0.5 10.03,-0.43 10.21,-1.23 0.32,-0.5 -9.39,0.21 -8.52,-0.7 0.01,-0.01 0.03,-0.03 0.04,-0.04 z m 14.34,0 c -0.02,0.13 -0.02,0.26 0.02,0.41 -0.08,0.88 -0.06,1.77 0.15,2.58 h 2.05 c -0.28,-0.49 -0.43,-1.06 -0.61,-1.56 -0.04,-0.51 0.04,-0.98 0.19,-1.43 z m 3.19,0 c -0.09,0.12 -0.19,0.23 -0.22,0.37 -0.2,0.27 -0.21,0.88 -0.7,0.77 -0.41,-0.39 -0.13,-0.77 0.08,-1.14 z m 1.48,0 c -0.14,0.12 -0.34,0.12 -0.52,0.06 -0.02,-0.02 -0.04,-0.04 -0.07,-0.06 z m 2.56,0 c -0.08,0.36 -0.28,0.69 -0.36,1.05 -0.11,0.09 -0.25,0.09 -0.4,0.09 -0.15,-0.37 -0.17,-0.77 -0.26,-1.14 z m 2.46,0 c 0,0 0,0.01 0,0 -0.04,0.35 -0.16,0.71 -0.47,0.89 -0.43,-0.09 -0.07,-0.72 -0.58,-0.83 -0.4,-0.18 -0.4,0.54 -0.75,0.13 -0.06,-0.05 -0.1,-0.11 -0.12,-0.19 z m 0.81,0 c 0.05,0.29 0.1,0.57 0.25,0.82 0.23,0.07 0.65,-0.02 0.67,0.36 0,0.65 -0.1,1.26 -0.32,1.81 h 0.99 c 0.1,-0.23 0.18,-0.45 0.21,-0.7 0.29,-0.38 0.63,0.02 0.92,0.07 0.89,0.28 1.85,0.4 2.76,0.62 h 4.25 c -0.43,-0.13 -0.87,-0.24 -1.35,-0.26 -0.84,-0.27 -1.72,-0.47 -2.68,-0.5 -1.31,-0.34 -2.86,-0.25 -3.76,-1.46 -0.07,-0.29 0.07,-0.54 0.34,-0.61 1.21,-0.05 2.37,-0.11 3.54,-0.15 z m 8.88,0 c 0.43,0.02 0.87,0.05 1.31,0.08 l 1.38,-0.07 c 0.15,0 0.3,0 0.46,-0.01 z m 5.13,0 c 0.41,0.03 0.82,0.1 1.19,0.23 0.13,0.14 0.41,0.31 0.36,0.54 -1.37,0.2 -3,0.4 -4.42,0.09 -0.92,0.05 -1.78,-0.03 -2.73,0.05 -0.68,0.2 -1.53,-0.5 -2,0.25 -0.04,0.18 0.04,0.43 0.25,0.47 1.22,0.16 2.5,0.25 3.79,0.27 0.63,-0.14 1.31,-0.03 1.98,-0.03 1.56,0.03 3.45,-0.54 4.53,0.92 0.04,0.07 0.08,0.14 0.12,0.21 h 1.59 c -0.31,-0.5 -0.65,-0.99 -0.94,-1.5 -0.46,-0.49 -0.92,-0.98 -1.36,-1.49 z m 10.81,0 c 0.11,0.28 0.21,0.57 0.29,0.86 0.37,0.69 0.65,1.41 0.92,2.14 h 2.17 c -0.05,-0.09 -0.1,-0.19 -0.14,-0.28 -0.31,-0.96 -0.84,-1.82 -1.32,-2.71 z m 5.04,0 c 0.42,0.92 0.78,1.86 1.19,2.78 0.02,0.07 0.04,0.14 0.06,0.21 h 1.21 c -0.4,-1 -0.82,-1.98 -1.21,-2.99 z m -45.94,2.99 c 0.19,-0.05 0.36,-0.1 0.52,-0.14 0.27,-0.41 3.76,-0.37 3.58,-1.18 -0.05,-0.24 -6.78,0.8 -7.44,1 -0.5,0.11 -1.01,0.22 -1.52,0.31 z m 4.4,0 c 0.04,-0.03 0.08,-0.06 0.09,-0.09 -0.08,-0.27 -0.79,-0.09 -1.4,0.09 z"
   id="path14731"
   inkscape:connector-curvature="0"
   style="clip-rule:evenodd;fill:#bd2b31;fill-rule:evenodd" />
	<path
   class="st2"
   d="m 106.48,82.82 c -0.73,1.15 -1.39,2.34 -1.96,3.56 h 1.87 c 0.59,-1.21 1.12,-2.46 1.97,-3.56 z m 4.94,0 c -0.25,0.36 -0.5,0.71 -0.75,1.07 -0.63,0.76 -1.07,1.61 -1.42,2.49 h 1.67 c 0.05,-0.12 0.11,-0.24 0.16,-0.37 0.59,-1.09 1.23,-2.17 1.98,-3.19 z m 12.49,0 c -0.25,0.22 -0.5,0.43 -0.75,0.62 -0.99,0.92 -2.08,1.9 -2.97,2.94 h 2.57 c 0.75,-0.72 2.17,-0.44 3.23,-0.42 l 4.79,0.16 c 0.84,0 1.42,0.18 2.3,0 0.18,-0.18 0.47,0.01 0.47,-0.34 0,-0.43 -1.11,-0.13 -1.67,-0.42 -1.35,-0.06 -2.68,-0.33 -3.99,-0.24 -1.15,0.09 -2.23,-0.22 -3.36,-0.27 -0.13,-0.07 -0.37,-0.21 -0.2,-0.38 1.02,-1.05 5.79,-0.13 6.7,-0.17 0.11,-0.04 0.19,-0.22 0.24,-0.33 -0.03,-0.26 -2.97,-0.64 -3.97,-1.15 z m 6.98,0 c 0.5,0.24 0.99,0.47 1.43,0.62 l 0.74,0.31 c 0.59,0.38 1.33,0.43 1.94,0.81 0.34,0.71 -0.38,1.16 -0.49,1.82 h 1.8 c 0.18,-0.54 0.45,-1.05 0.72,-1.56 0.5,-0.73 1.13,-1.53 1.91,-2 h -2.53 c -0.38,0.43 -0.74,0.98 -1.35,0.75 -0.46,-0.24 -0.9,-0.53 -1.37,-0.75 z m 12.8,0 c 0.22,0.13 0.44,0.28 0.65,0.44 0.47,0.25 0.88,0.7 1.28,1.06 0.16,0.13 0.09,0.38 0.07,0.54 -0.27,0.3 -0.97,0.34 -0.83,0.88 0.09,0.2 0.13,0.42 0.16,0.64 h 5.83 c 1.01,-0.03 2.02,-0.04 3.05,0 h 3.15 c 0.65,-0.02 1.33,-0.05 1.98,0 h 2.37 c -0.42,-0.49 -0.82,-0.98 -1.18,-1.5 -0.76,-0.6 -1.33,-1.42 -2.03,-2.06 h -1.96 c -0.89,0.16 -1.77,0.37 -2.63,0.64 l -1.83,0.11 c -0.79,-0.04 -1.59,0.03 -2.32,0.19 -0.97,0.06 -1.75,0.58 -2.64,0.79 -0.55,-0.18 -0.23,-0.92 -0.61,-1.28 -0.05,-0.16 -0.03,-0.32 0.03,-0.45 z m 4.14,0 c -0.12,0.05 -0.23,0.1 -0.35,0.15 -0.11,0.05 -0.13,0.2 -0.07,0.3 0.16,0.2 0.41,0.16 0.65,0.2 0.47,-0.24 0.95,-0.45 1.44,-0.65 z m 20.19,0 0.86,1.27 c 0.28,0.78 0.66,1.52 0.97,2.29 h 1.92 c -0.02,-0.04 -0.04,-0.09 -0.06,-0.13 -0.4,-1.2 -0.96,-2.34 -1.61,-3.42 z m 5.08,0 c 0.24,0.5 0.48,1 0.7,1.52 0.42,0.66 0.77,1.34 1.08,2.04 h 1.25 c -0.06,-0.15 -0.12,-0.3 -0.18,-0.46 -0.67,-0.95 -1,-2.06 -1.5,-3.1 z m -36.24,3.56 c 0.08,-0.14 0.15,-0.28 0.17,-0.43 0.21,-0.09 0.74,-0.3 0.83,0.09 -0.01,0.13 -0.08,0.24 -0.16,0.34 z m 1.74,0 c -0.28,-0.26 -0.29,-0.74 -0.72,-0.91 -0.2,0.03 -0.47,0.05 -0.63,-0.07 -0.11,-0.09 -0.09,-0.29 -0.02,-0.4 0.43,-0.29 0.99,-0.31 1.53,-0.25 l 0.21,0.25 c 0.36,0.32 0.43,0.84 0.29,1.29 -0.02,0.03 -0.05,0.06 -0.08,0.09 z m 2.14,0 c -0.02,-0.09 -0.04,-0.18 -0.07,-0.26 -0.14,-0.38 -0.56,-0.76 -0.38,-1.19 0.05,-0.09 0.14,-0.2 0.25,-0.21 0.59,-0.06 0.92,0.57 1.15,0.99 0.1,0.24 0.1,0.46 0.05,0.68 z m 1.55,0 c -0.06,-0.18 -0.04,-0.4 0.01,-0.57 0.05,-0.36 0.38,-0.63 0.72,-0.72 0.34,-0.07 0.59,0.09 0.84,0.27 0.28,0.27 0.34,0.62 0.34,1.01 z m 10.85,-2.07 c 0.83,-0.16 1.64,-0.36 2.46,-0.54 0.7,0.04 1.5,-0.36 2.09,0.09 0.47,0.3 1.07,0.63 0.99,1.26 -0.52,0.4 -1.29,0.48 -1.94,0.36 -2.91,-0.09 -5.7,0.18 -8.58,0.22 l -1.28,0.09 c -0.18,-0.09 -0.21,-0.27 -0.16,-0.43 0.59,0.03 0.95,-0.45 1.51,-0.5 0.4,-0.2 0.92,-0.09 1.37,-0.22 l 2.16,-0.27 z"
   id="path14733"
   inkscape:connector-curvature="0"
   style="clip-rule:evenodd;fill:#bd2b31;fill-rule:evenodd" />
	<path
   class="st2"
   d="m 109.76,78.06 c -0.01,0.02 -0.02,0.04 -0.03,0.06 -0.56,1.06 -1.49,1.94 -2.09,2.99 -0.41,0.57 -0.8,1.14 -1.17,1.72 h 1.88 c 0.1,-0.13 0.2,-0.26 0.31,-0.39 0.83,-1.47 2.1,-2.68 3.01,-4.12 0.07,-0.09 0.14,-0.17 0.22,-0.26 z m 5.29,0 c -1.34,1.5 -2.51,3.15 -3.63,4.76 h 1.65 c 0.49,-0.66 1.01,-1.3 1.6,-1.92 0.73,-0.86 1.24,-1.94 2.16,-2.63 0.1,-0.07 0.21,-0.14 0.31,-0.22 z m 16.39,0 c -1.78,0.66 -3.38,1.74 -5.03,2.7 -0.87,0.56 -1.68,1.35 -2.5,2.06 h 3.39 c -0.29,-0.14 -0.42,-0.3 -0.25,-0.47 0.87,-0.88 2.42,-0.19 3.84,0.47 h 2.79 c -0.32,-0.15 -0.66,-0.26 -1.04,-0.28 -0.93,-0.65 -2.01,-0.97 -3.08,-1.33 -0.16,-0.05 -0.09,-0.23 -0.07,-0.32 0.29,-0.45 0.72,-0.02 1.08,-0.04 0.49,0.31 1.1,0.33 1.65,0.47 0.76,0.5 1.66,0.65 2.45,1.04 0.16,0 0.29,-0.12 0.34,-0.25 0.04,-0.22 -0.12,-0.38 -0.29,-0.47 -0.45,0 -0.72,-0.41 -1.15,-0.45 -0.49,-0.43 -1.02,-0.72 -1.55,-1.08 -0.13,-0.12 -0.16,-0.36 -0.04,-0.49 0.18,-0.25 0.45,-0.5 0.78,-0.52 0.86,-0.23 1.15,0.81 1.81,1.03 0.97,0.52 1.26,1.62 2.09,2.27 l -0.02,0.18 c -0.08,0.07 -0.17,0.15 -0.25,0.24 h 2.53 c 0.06,-0.04 0.12,-0.07 0.18,-0.1 1.13,-0.51 2.66,-0.51 3.9,-0.22 0.23,0.08 0.45,0.19 0.66,0.32 h 2.54 c 0.05,-0.1 0.13,-0.2 0.21,-0.28 1.45,-1.44 3.23,-3.24 5.4,-2.16 l 0.29,0.29 c 0.01,0.58 -0.74,0.41 -1.06,0.72 -1.1,0.41 -2.16,0.94 -3.24,1.43 h 1.66 c 0.86,-0.36 1.73,-0.71 2.58,-1.16 1.47,-0.52 3.05,0 4.22,0.92 0,0.07 0.07,0.16 0.02,0.23 -0.02,0 -0.04,0.01 -0.07,0.01 h 1.96 c -0.26,-0.24 -0.54,-0.46 -0.86,-0.64 -1.04,-0.92 -2.25,-1.51 -3.4,-2.19 -1.04,-0.59 -2.23,-0.79 -3.23,-1.42 -0.4,-0.25 -0.84,-0.39 -1.29,-0.51 h -5.19 c 0.01,0.01 0.01,0.03 0.01,0.04 -0.09,0.95 -0.49,1.76 -0.81,2.62 -0.11,0.07 -0.12,0.18 -0.25,0.16 -0.4,-1.03 0.33,-1.8 0.27,-2.79 0.01,-0.01 0.01,-0.02 0.02,-0.04 h -1.18 c 0.02,0.69 -0.13,1.31 -0.3,1.93 -0.27,0.34 0.09,0.9 -0.41,1.12 -0.58,0.2 -1.29,0.18 -1.91,0.03 l -0.18,-0.2 c -0.14,-0.88 -0.09,-1.81 -0.13,-2.68 -0.02,-0.06 -0.05,-0.13 -0.06,-0.2 z m 8.95,0 c 0.04,0.05 0.08,0.1 0.1,0.17 0.02,0.52 -0.36,1.37 0.25,1.64 0.23,-0.02 0.42,-0.2 0.47,-0.39 l 0.04,-1.03 0.19,-0.38 h -1.05 z m 23.43,0 c 1.44,1.22 2.5,2.76 3.89,4.16 l 0.11,0.31 0.2,0.3 h 2.08 c -0.09,-0.15 -0.19,-0.31 -0.29,-0.46 -0.54,-0.57 -0.84,-1.24 -1.24,-1.89 -0.75,-0.78 -1.27,-1.63 -1.96,-2.41 z m 6.42,0 c 0.68,0.92 1.3,1.89 1.92,2.83 0.3,0.65 0.62,1.29 0.94,1.94 h 1.35 c -0.07,-0.14 -0.15,-0.29 -0.23,-0.42 -0.39,-0.65 -0.38,-1.49 -0.95,-2.09 -0.18,-0.74 -0.83,-1.31 -1.28,-1.94 -0.13,-0.1 -0.24,-0.2 -0.35,-0.31 z m -32.7,1.57 c -0.09,-0.41 -0.43,-0.93 -0.05,-1.33 0.09,-0.07 0.2,-0.12 0.29,-0.16 0.2,0.04 0.43,0 0.52,0.21 -0.2,0.88 -0.03,1.85 0.2,2.68 -0.1,0.32 -0.5,0.45 -0.77,0.59 -0.63,0.11 -0.75,-0.66 -1.26,-0.88 -0.56,-0.56 -0.94,-1.24 -1.6,-1.69 -0.07,-0.13 -0.04,-0.31 0,-0.45 0.21,-0.25 0.52,-0.31 0.83,-0.23 l 0.27,0.18 c 0.49,0.68 0.75,1.55 1.49,2.02 0.16,0.07 0.41,0 0.45,-0.2 0.08,-0.34 -0.29,-0.47 -0.37,-0.74 z m 8.26,0.99 c 0.11,0.03 0.25,0.11 0.36,0.02 0.66,-0.7 1.1,-2.25 2.38,-1.87 0.16,0.13 0.37,0.2 0.46,0.42 0.06,0.38 -0.34,0.34 -0.56,0.48 -0.92,1.01 -2.01,1.71 -2.98,2.68 -0.27,0.13 -0.45,-0.12 -0.65,-0.25 -0.79,-0.88 -0.05,-2.01 0.16,-2.91 0.36,-0.4 0.49,-1.15 1.17,-1.08 0.31,-0.05 0.54,0.07 0.81,0.16 l -0.03,0.22 c -0.49,0.52 -0.92,1.06 -1.28,1.64 -0.07,0.16 0.02,0.35 0.16,0.49 z"
   id="path14735"
   inkscape:connector-curvature="0"
   style="clip-rule:evenodd;fill:#bd2b31;fill-rule:evenodd" />
	<path
   class="st2"
   d="m 114.08,73.3 c -0.13,0.13 -0.25,0.27 -0.36,0.41 -0.7,0.93 -1.48,1.69 -2.34,2.48 -0.42,0.67 -1.23,1.16 -1.61,1.87 h 2.14 c 1.22,-1.39 2.74,-2.57 3.86,-4.01 0.34,-0.22 0.67,-0.49 1,-0.76 h -2.69 z m 7.66,0 c -1.15,0.66 -2.28,1.38 -3.49,1.89 -1.19,0.83 -2.24,1.81 -3.19,2.88 h 2.08 c 1.36,-0.96 2.66,-2.08 4.15,-2.73 0.79,-0.56 1.62,-1.04 2.43,-1.55 0.33,-0.16 0.66,-0.32 0.99,-0.49 z m 36.18,0 c 0.13,0.09 0.26,0.18 0.4,0.27 1.85,0.85 3.17,2.77 4.86,3.99 0.22,0.16 0.43,0.33 0.64,0.5 h 2.79 c -0.13,-0.14 -0.25,-0.28 -0.39,-0.41 -0.84,-0.52 -1.38,-1.51 -2.3,-1.92 -1.09,-0.67 -2.04,-1.66 -3.09,-2.43 z m 7.65,0 c 0.68,0.67 1.34,1.37 2.08,1.98 1.02,0.81 1.85,1.77 2.59,2.78 h 1.41 c -0.61,-0.6 -0.97,-1.38 -1.7,-1.96 -0.76,-1.02 -1.67,-1.92 -2.62,-2.8 z m -26.27,4.76 c -0.02,-0.08 -0.02,-0.17 0.01,-0.25 0.13,-0.16 0.36,-0.15 0.52,-0.15 0.2,0.11 0.42,0.22 0.57,0.4 h 1.05 l 0.26,-0.52 c 0.2,-0.11 0.52,-0.05 0.57,0.22 0.01,0.1 0.01,0.2 0.02,0.3 h 1.18 c 0.08,-0.12 0.15,-0.29 0.32,-0.32 0.2,-0.02 0.35,0.14 0.43,0.32 h 5.19 c -0.6,-0.16 -1.21,-0.29 -1.76,-0.57 -1.47,-0.36 -3,-0.63 -4.57,-0.81 l -4.44,0.02 c -1.53,0.14 -2.99,0.43 -4.43,0.79 l -1.72,0.23 c -0.36,0.1 -0.71,0.21 -1.05,0.34 z"
   id="path14737"
   inkscape:connector-curvature="0"
   style="clip-rule:evenodd;fill:#bd2b31;fill-rule:evenodd" />
	<path
   class="st2"
   d="m 131.34,63.77 c -0.69,0.13 -1.4,0.22 -2.05,0.42 -1.08,0.21 -2.03,0.75 -3.04,1.15 -1.87,1.01 -3.94,1.51 -5.68,2.82 -1.23,0.78 -2.32,1.87 -3.54,2.68 -0.97,0.82 -2.06,1.51 -2.94,2.44 h 2.68 c 0.27,-0.23 0.54,-0.46 0.8,-0.68 l 3.42,-2.68 c 1.15,-0.77 2.39,-1.35 3.54,-2.12 0.94,-0.47 1.98,-0.66 2.93,-1.12 0.36,-0.09 0.84,-0.12 1.13,0.11 0.81,1.1 1.99,2.11 3.43,1.78 0.85,-0.25 1.75,-0.45 2.43,-1.13 0.21,-0.21 0.98,-0.89 1.29,-0.96 0.4,-0.04 0.99,0.4 1.35,0.49 1.17,-0.09 1.57,0.1 2.63,-0.37 0.63,-0.32 1.21,-0.51 1.75,-1.01 0.34,0 0.96,0.56 1.23,0.71 0.86,0.56 2.72,0.56 3.73,0.8 0.06,0.01 0.06,0.07 0.06,0.12 -0.27,0.27 -1.84,-0.17 -2.14,-0.08 -2.72,-0.47 -5.47,0.12 -8.08,0.61 -2.27,0.7 -4.71,0.99 -6.89,1.91 -1.67,0.58 -3.22,1.47 -4.82,2.27 -0.98,0.34 -1.91,0.84 -2.82,1.36 h 2.96 c 1.28,-0.62 2.59,-1.19 3.89,-1.76 0.74,-0.47 1.64,-0.63 2.36,-1.15 2.86,-1.19 6.13,-1.36 9.25,-1.94 0.74,0.13 1.29,-0.2 2,-0.16 2.46,-0.09 4.75,0.36 6.98,0.86 0.84,0.31 1.67,0.66 2.52,0.97 1.22,0.69 2.53,1.23 3.79,1.87 0.86,0.31 1.65,0.79 2.45,1.32 h 2.9 c -0.44,-0.32 -0.91,-0.61 -1.41,-0.81 -1.77,-0.94 -3.58,-1.75 -5.29,-2.79 -1.04,-0.49 -2.12,-0.85 -3.23,-1.17 -0.13,-0.09 -0.21,-0.25 -0.11,-0.38 0.41,-0.29 0.94,-0.32 1.35,-0.61 0.41,-0.47 0.99,-0.77 1.27,-1.31 1.55,0.65 3.02,1.44 4.52,2.23 1.88,0.74 3.7,1.69 5.36,2.99 0.85,0.49 1.58,1.15 2.29,1.85 h 1.76 c -0.66,-0.61 -1.35,-1.21 -2.02,-1.82 -0.83,-0.4 -1.49,-1.2 -2.3,-1.67 -0.99,-0.32 -1.8,-1.06 -2.73,-1.49 -1.37,-0.74 -2.68,-1.55 -4.12,-2.12 -0.43,-0.27 -0.94,-0.36 -1.37,-0.66 -1.02,-0.45 -1.96,-1.1 -3.08,-1.35 -0.58,-0.18 -1.21,0.18 -1.72,-0.13 -0.03,-0.09 -0.05,-0.19 -0.06,-0.28 h -1.24 c 0.11,0.99 0.4,1.98 0.76,2.77 0.23,0.18 0.5,0.4 0.81,0.25 0.13,-0.06 0.27,-0.06 0.36,-0.22 -0.07,-0.52 -0.32,-0.97 -0.52,-1.46 0,-0.14 0.16,-0.18 0.27,-0.2 0.56,-0.04 0.89,0.41 1.42,0.45 0.07,0.05 0.04,0.59 -0.07,0.94 -0.02,0.32 -0.54,0.38 -0.72,0.63 -0.18,0.23 -0.42,0.31 -0.7,0.31 -1.04,-0.09 -1.73,-0.95 -2.3,-1.78 l -0.48,-1.69 h -2.94 c 0.23,0.38 0.46,0.64 0.6,0.81 0.4,0.47 1.16,1.46 0.36,1.23 -1.13,-0.33 -2.34,-1.28 -3.02,-2.04 h -1.17 c -0.77,0.78 -2.08,1.75 -2.93,2.04 -0.8,0.27 0.12,-0.92 0.52,-1.4 0.12,-0.15 0.3,-0.35 0.48,-0.64 h -2.09 c -0.06,0.03 -0.12,0.05 -0.17,0.08 -0.28,0.11 -0.56,0 -0.81,-0.07 h -0.44 c -0.1,0.06 -0.19,0.16 -0.26,0.36 -0.09,1.15 -1.09,2.38 -2.22,2.81 -0.63,0.09 -1.44,0.38 -2.03,-0.02 -0.43,-0.43 -0.59,-1.01 -0.47,-1.6 0.09,-0.67 0.81,-0.76 1.31,-0.88 0.23,-0.02 0.57,-0.07 0.68,0.18 0.2,0.81 -1.55,0.86 -0.61,1.64 0.78,0.05 1.39,-0.51 1.89,-1.06 0.26,-0.38 0.45,-0.88 0.55,-1.43 h -3.43 z"
   id="path14739"
   inkscape:connector-curvature="0"
   style="clip-rule:evenodd;fill:#bd2b31;fill-rule:evenodd" />
	<path
   class="st2"
   d="m 134.71,63.77 c 0.16,-0.9 0.07,-1.93 -0.36,-2.75 0.29,-0.18 1.84,0.38 2,0.79 0,0.52 -0.09,1.15 0.43,1.41 0.32,0.11 0.68,-0.32 0.83,0.12 0.03,0.23 -0.14,0.35 -0.31,0.43 h 2.09 c 0.4,-0.64 0.81,-1.7 0.79,-3.56 -0.04,-2.7 -1.81,-3.31 -2.56,-3.35 -0.75,-0.04 -1.28,-0.06 -1.01,-0.39 0.28,-0.32 1.55,-0.36 2.46,-0.16 0.92,0.19 2.89,1.92 2.89,1.92 0,0 1.97,-1.73 2.89,-1.92 0.92,-0.2 2.61,-0.32 2.89,0 0.28,0.32 -0.21,0.29 -0.96,0.33 -0.75,0.04 -3,0.86 -3.04,3.56 -0.02,1.75 0.41,2.86 0.83,3.56 h 2.94 l -0.04,-0.15 c -0.36,-0.34 -0.88,-0.09 -1.31,-0.23 -0.34,-0.13 -0.81,-0.16 -0.95,-0.6 -0.06,-0.27 -0.14,-0.65 0.17,-0.76 l 0.27,-0.22 c 0.03,-0.16 0.4,-0.16 0.62,-0.14 0.5,-0.04 0.61,0.77 1.17,0.61 0.63,0.05 0.79,-0.98 1.25,-1.21 1.02,-0.81 1.24,-0.55 1.87,-0.85 l 0.03,0.07 v 0.07 c -0.9,0.61 -1.86,1.14 -1.94,2.26 -0.02,0.38 0,0.77 0.04,1.17 l 1.24,-0.01 c -0.08,-0.7 0.4,-1.3 0.53,-1.97 0.58,-0.97 1.84,-0.34 2.63,-0.9 0.27,-0.23 0.25,-0.65 0.21,-0.93 -0.54,-0.68 -1.19,-1.24 -2.08,-1.13 -1.37,0.21 -2.5,0.92 -3.56,1.84 -0.61,0.5 -1.17,-0.22 -1.76,-0.32 -0.52,-0.14 -0.86,-0.72 -0.91,-1.24 0,-0.58 0.61,-0.94 1.02,-1.26 0.86,-0.74 2.09,-0.41 3.06,-0.11 0.36,-0.06 0.64,-0.45 0.72,-0.79 0.07,-0.43 -0.02,-0.9 -0.27,-1.26 -0.4,-0.23 -0.81,-0.43 -1.28,-0.5 -1.53,-0.13 -3.25,-0.32 -4.49,0.55 -0.63,0.31 -1.06,1.15 -1.86,1.08 -0.75,-0.59 -1.65,-0.75 -2.43,-1.26 l -1.24,-0.52 c -1.26,-0.23 -2.43,0.43 -3.06,1.49 -0.16,0.59 -0.56,1.46 0,2.01 0.2,0.27 0.5,0.34 0.81,0.27 0.45,-0.05 0.56,-0.56 0.81,-0.82 0.18,-0.18 0.45,-0.14 0.68,-0.11 0.43,0.11 0.88,0.51 1.04,0.93 0.2,0.6 -0.27,1.06 -0.65,1.46 -0.34,0.31 -0.9,0.27 -1.35,0.2 -1.49,-0.9 -3.11,-2.28 -5.04,-1.44 -0.81,0.4 -1.83,1.21 -1.83,2.17 0.42,0.68 1.06,-0.02 1.6,0 0.88,-0.09 1.73,0.07 2.29,0.72 0.18,0.5 -0.07,1.02 -0.45,1.35 -0.54,0.25 -1.13,0.39 -1.73,0.5 h 3.37 z m 1.61,0 c -0.16,-0.04 -0.31,-0.07 -0.44,0 z m 5.01,0 c 0.36,-0.37 0.61,-0.69 0.63,-0.89 0.02,0.19 0.22,0.52 0.54,0.88 z m -4.11,-1.95 c 0.31,-0.45 0.85,-0.9 1.42,-0.74 l 0.16,0.18 c 0.05,0.32 0.06,0.89 -0.19,1.14 -0.32,0.25 -0.93,0.17 -1.36,-0.01 -0.14,-0.14 -0.08,-0.41 -0.03,-0.57 z"
   id="path14741"
   inkscape:connector-curvature="0"
   style="clip-rule:evenodd;fill:#bd2b31;fill-rule:evenodd" />
	<path
   class="st2"
   d="m 190.86,98.3 c -0.22,-1.17 -0.2,-2.47 -0.34,-3.64 -0.52,-4.19 -1.41,-8.22 -2.97,-11.96 -0.21,-0.9 -0.63,-1.69 -1.13,-2.45 -0.25,-0.84 -0.79,-1.55 -1.22,-2.3 l -0.11,-0.29 c -2.01,-2.68 -3.22,-5.7 -5.66,-8.16 -2.57,-2.61 -5.11,-5.63 -8.16,-7.63 -1.96,-1.74 -4.07,-3.09 -6.23,-4.35 -1.19,-0.54 -2.28,-1.24 -3.44,-1.85 -1.17,-0.54 -2.39,-0.97 -3.61,-1.44 -2.04,-0.88 -4.44,-0.88 -6.53,-1.65 -1.41,-0.16 -2.84,-0.2 -4.23,-0.4 -2.19,-0.14 -4.41,-0.23 -6.55,-0.18 -1.64,-0.3 -3.4,-0.16 -4.91,0.31 -1.01,0.02 -1.93,0.3 -2.92,0.36 -1.67,-0.06 -3.02,0.67 -4.58,0.84 -0.56,0.12 -0.99,0.56 -1.58,0.54 -1.24,0.58 -2.61,0.78 -3.94,1.13 -1.06,0.16 -1.91,0.86 -2.93,1.13 -0.67,0.79 -1.73,0.67 -2.43,1.39 -2.79,1.2 -5.2,3.36 -7.97,4.62 -2.25,1.93 -4.93,3.34 -6.64,5.84 -0.88,0.83 -1.44,1.86 -2.25,2.72 -0.72,0.85 -0.97,1.85 -1.64,2.71 -0.46,1.31 -1.6,2.36 -2.01,3.67 -0.4,0.43 -0.38,1.04 -0.82,1.46 -0.4,1.03 -0.99,1.96 -1.44,2.95 -0.18,0.85 -0.74,1.51 -0.9,2.34 -0.56,1.06 -1.01,2.18 -1.22,3.4 -0.52,0.72 -0.63,1.6 -0.83,2.47 -0.48,2.38 -1.31,4.64 -1.46,7.14 -0.5,1.91 -0.07,3.85 -0.2,5.85 -0.36,0.61 0.13,1.22 -0.07,1.89 0.38,1.06 0.29,2.3 0.43,3.45 l 0.16,0.25 c 0.25,1.03 0.38,2.08 0.58,3.15 0.27,1.87 0.93,3.58 1.46,5.36 0.9,1.99 1.37,4.17 2.23,6.19 0.63,1.15 1.02,2.37 1.82,3.47 1.03,2.1 2.5,4.05 3.67,6.12 1.56,1.89 3.34,3.74 5.14,5.43 2.43,2.5 5.14,4.32 7.95,5.95 2.32,1.64 4.93,2.56 7.43,3.8 1.55,0.54 3.06,1.15 4.62,1.64 1.38,0.19 2.48,1.06 3.92,1.14 1.06,0 1.87,0.61 2.91,0.61 3.76,0.4 7.66,0.6 11.46,0.18 1.85,-0.2 3.76,-0.31 5.56,-0.61 3.34,-0.36 6.46,-1.28 9.46,-2.49 1.58,-0.99 3.34,-1.6 5.07,-2.25 2.75,-1.45 5.6,-2.77 8.08,-4.89 1.41,-0.88 2.63,-2.1 3.99,-3.14 1.4,-1.85 3.22,-3.49 4.7,-5.36 0.1,-0.43 0.38,-0.81 0.63,-1.21 1.24,-1.44 2.17,-3.02 3.27,-4.53 0.5,-1.1 1.44,-2.01 1.62,-3.25 0.45,-0.92 2.26,-5.95 2.84,-7.44 0.47,-2.23 1.18,-4.26 1.41,-6.59 0.13,-2.19 0.63,-4.3 0.5,-6.55 -0.12,-1.63 0.1,-3.25 0.01,-4.89 z m -1.99,10.32 c -0.19,0.43 -0.02,0.92 -0.15,1.36 -0.25,1.31 -0.39,2.66 -0.94,3.87 -0.81,3.15 -1.82,6.21 -3.09,9.17 -0.74,1.42 -1.55,2.8 -2.45,4.15 -1.15,1.85 -2.5,3.63 -3.79,5.4 -0.45,0.7 -1.17,1.1 -1.71,1.71 -0.76,1.6 -2.47,2.59 -3.74,3.76 -1.46,1.69 -3.33,2.45 -4.95,3.79 -1.83,1.55 -4.08,2.16 -6.02,3.42 -0.97,0.6 -2.07,0.86 -2.99,1.53 -0.81,0.22 -1.49,0.7 -2.32,0.86 -2.25,0.74 -4.69,1.01 -7.08,1.38 -1.34,0.38 -2.65,0.83 -4.14,0.83 -1.15,0.13 -2.38,0.21 -3.49,0.27 -0.92,0.07 -1.86,0.37 -2.77,0.09 -0.95,-0.33 -2.05,-0.13 -3.08,-0.09 -2.07,0.07 -4.14,-0.11 -5.95,-0.77 -1.56,-0.37 -3,-0.99 -4.64,-1.21 -1.85,-0.85 -3.88,-1.26 -5.72,-2.18 -2.43,-0.99 -4.84,-2.07 -6.96,-3.83 -1.26,-1.04 -2.75,-1.67 -3.98,-2.88 -1.64,-1.22 -3.45,-2.59 -4.53,-4.37 -0.79,-0.56 -1.3,-1.42 -1.76,-2.19 -0.18,-0.4 -0.7,-0.29 -0.79,-0.72 -0.88,-1.6 -1.99,-3.1 -2.91,-4.68 -0.48,-0.34 -0.48,-0.93 -0.82,-1.36 -1.04,-1.85 -2.09,-3.69 -2.7,-5.7 -0.61,-1.15 -0.86,-2.43 -1.44,-3.58 -0.3,-1.12 -0.59,-2.23 -0.72,-3.42 -0.05,-0.52 -0.49,-0.88 -0.65,-1.36 -0.5,-2.19 -0.57,-4.48 -0.9,-6.75 -0.13,-0.97 -0.41,-1.98 -0.36,-3.02 -0.14,-1.38 -0.12,-2.81 0.16,-4.16 -0.02,-1.99 0.86,-3.69 1.09,-5.61 0.52,-2 0.88,-4.06 1.85,-5.88 -0.02,-0.72 0.56,-1.2 0.59,-1.91 0.92,-1.85 1.39,-3.9 2.47,-5.7 0.64,-1.73 2.03,-3.13 2.61,-4.89 0.58,-1.33 1.67,-2.41 2.45,-3.65 0.82,-0.88 1.62,-1.93 2.64,-2.54 0.59,-0.45 1.13,-1.01 1.62,-1.53 1.82,-1.1 3.31,-2.86 5.16,-3.88 0.86,-0.34 1.49,-1.26 2.37,-1.53 1.24,-0.86 2.57,-1.46 3.88,-2.12 1.94,-0.74 3.64,-2.08 5.72,-2.45 1.55,-0.38 3.08,-0.74 4.66,-0.99 0.95,-0.29 2.01,-0.4 2.95,-0.74 1.42,-0.16 2.84,-0.41 4.26,-0.57 2,-0.36 4.12,-0.4 6.22,-0.49 1.49,0.13 2.97,0.09 4.42,0.29 l 2.65,0.45 c 0.86,-0.18 1.64,0.13 2.44,0.18 2.57,0.27 4.97,1.01 7.21,2.07 1.3,0.72 2.66,1.24 3.99,1.9 2.77,0.97 5.19,2.81 7.55,4.8 0.95,0.99 2.01,1.89 3.06,2.72 2.07,2.01 4.05,4.03 5.97,6.1 0.68,0.97 1.4,1.92 2,2.93 1.08,1.51 2.23,3.06 2.98,4.73 1.64,2.88 2.54,6.06 3.38,9.26 1.6,4.14 1.58,8.86 1.67,13.51 -0.31,2.02 -0.42,4.12 -0.48,6.22 z"
   id="path14743"
   inkscape:connector-curvature="0"
   style="clip-rule:evenodd;fill:#bd2b31;fill-rule:evenodd" />
	<path
   class="st3"
   d="m 150.85,99.55 c 0.17,0.32 -0.15,0.31 -0.09,0.65 0.03,0.25 0.14,0.67 -0.18,0.79 -0.61,0.13 -0.43,-0.87 -1.08,-0.6 l -0.91,0.16 c -0.07,1.12 -0.03,2.62 -0.2,3.7 0.04,0.45 0.6,0.24 0.64,0.69 0,0.24 0,0.54 -0.25,0.55 -0.29,0.02 -0.49,0.11 -0.7,-0.03 -0.56,0.16 -1.27,0.26 -1.85,-0.01 -0.18,-0.14 -0.2,-0.4 -0.13,-0.59 0.23,-0.32 0.74,-0.25 0.76,-0.68 -0.02,-1.13 0.27,-2.57 -0.01,-3.63 -0.19,-0.29 -0.76,-0.25 -0.96,-0.18 -0.45,0.09 -0.23,1.01 -0.66,0.9 l -0.23,-0.3 -0.09,-1.32 0.15,-0.12 c 1.67,0 3.45,0.11 5.07,-0.09 0.24,0 0.55,-0.09 0.72,0.11 z"
   id="path14745"
   inkscape:connector-curvature="0"
   style="fill:#bd2b31" />
	<path
   class="st3"
   d="m 166.57,99.79 c 0,0.47 0.09,1.01 -0.07,1.42 -0.2,0.14 -0.47,0.02 -0.7,0.02 -0.14,-0.09 0.11,-0.52 0.02,-0.63 -0.18,-0.31 -0.49,-0.56 -0.83,-0.54 -0.19,0.03 -0.91,0.43 -0.94,0.63 0.03,1.29 2.13,1.04 2.67,2.03 0.49,0.9 0.26,1.58 -0.29,2.2 -0.72,0.68 -2.09,0.68 -2.93,0.27 -0.5,-0.02 -1.03,0.56 -1.44,0.05 l 0.48,-0.76 c 0.31,-0.47 0.21,-0.72 0.63,-1.08 l 0.17,0.02 c 0.23,0.86 0.42,1.26 1.35,1.29 0.62,0.01 1.02,-0.1 1.11,-0.41 0.15,-0.2 0.04,-0.45 0,-0.65 -0.61,-0.86 -2.52,-0.74 -2.95,-1.73 -0.19,-0.7 -0.26,-1.63 0.35,-2.13 0.75,-0.5 2.38,-0.74 3.25,-0.25 z"
   id="path14747"
   inkscape:connector-curvature="0"
   style="fill:#bd2b31" />
	<path
   class="st3"
   d="m 125.28,99.62 c 0.23,0.41 0.14,1.02 0.09,1.49 -0.09,0.25 -0.4,0.23 -0.63,0.2 -0.4,-0.13 -0.16,-0.61 -0.57,-0.67 -0.32,-0.07 -0.76,-0.11 -1.01,0.14 -0.16,0.16 -0.21,0.74 -0.18,0.95 0.16,0.29 0.81,0.14 1.05,0.25 0.38,0.36 0.24,0.35 0.14,0.87 -0.09,0.49 -0.65,0 -1.06,0.09 -0.25,0.3 -0.18,1.37 -0.01,1.68 0.64,0.18 1.5,-0.09 1.82,-0.35 0.31,-0.26 0.39,-0.67 0.72,-0.77 0.2,0 0.43,0.09 0.45,0.31 -0.21,0.5 -0.07,1.28 -0.59,1.62 -1.37,0.56 -3.13,-0.02 -4.64,0.12 -0.27,-0.09 -0.23,-0.34 -0.2,-0.56 1.1,-1.01 0.67,-3.05 0.7,-4.41 -0.03,-0.36 -0.62,-0.66 -0.42,-1.01 l 0.18,-0.11 c 0.95,-0.07 2.26,0.13 3.21,0 0.32,0 0.68,0.01 0.95,0.16 z"
   id="path14749"
   inkscape:connector-curvature="0"
   style="fill:#bd2b31" />
	<path
   class="st3"
   d="m 141.78,99.85 c 0.03,0.2 0.03,0.4 -0.07,0.56 -0.27,0.09 -0.56,0.23 -0.75,0.51 0.12,1.06 0.03,2.2 0.01,3.23 0.2,0.27 0.66,0.2 0.73,0.6 0.14,0.34 0.08,0.62 -0.18,0.78 -0.5,0.23 -1.49,-0.05 -2.08,-0.02 -0.34,0.18 -0.79,0.07 -1.14,-0.07 -0.24,-0.2 -0.25,-0.35 -0.1,-0.64 0.18,-0.45 0.79,-0.18 0.95,-0.66 0.38,-0.9 0.08,-2.44 0.2,-3.43 -0.13,-0.41 -0.64,-0.07 -0.91,-0.41 -0.13,-0.14 -0.41,-0.72 -0.19,-0.72 1.06,0 2.11,-0.16 3.24,-0.04 0.15,0.02 0.24,0.18 0.29,0.31 z"
   id="path14751"
   inkscape:connector-curvature="0"
   style="fill:#bd2b31" />
	<path
   class="st3"
   d="m 114.72,99.71 c 0.04,0.23 -0.11,0.24 -0.34,0.31 -0.14,-0.02 -0.27,0.09 -0.34,0.18 0.07,0.72 0.31,1.65 0.77,2.2 0.27,0.07 0.45,-0.21 0.56,-0.4 l 1.43,-2.07 c -0.56,-0.28 -0.26,-0.61 -0.26,-0.61 0.59,-0.09 1.56,-0.14 2.02,0 0.14,0.07 0.68,-0.15 0.55,0.28 -0.12,0.37 -0.57,0.28 -0.82,0.63 -1.1,1.55 -2.13,3.5 -3.02,4.94 -0.29,-0.02 -0.66,0.07 -0.75,-0.23 l -0.02,-0.59 -1.85,-3.99 c -0.14,-0.16 -0.41,-0.05 -0.57,-0.18 -0.23,-0.2 -0.2,-0.26 -0.14,-0.55 0.25,-0.34 0.74,-0.23 1.1,-0.36 0.58,0.08 1.43,-0.21 1.68,0.44 z"
   id="path14753"
   inkscape:connector-curvature="0"
   style="fill:#bd2b31" />
	<path
   class="st2"
   d="m 159.42,104.32 c -0.83,-1.53 -1.78,-2.99 -2.37,-4.6 -0.11,-0.21 -0.31,-0.47 -0.56,-0.47 -0.25,0.04 -0.83,0.14 -0.91,0.42 -0.26,1.78 -1.34,3.22 -2.21,4.75 -0.31,0.22 -0.56,0.52 -0.88,0.67 -0.12,0.13 -0.07,0.25 0.04,0.36 0.7,-0.05 1.83,0 2.58,-0.03 0.09,-0.04 0.24,-0.09 0.21,-0.23 -0.04,-0.16 -0.18,-0.21 -0.29,-0.31 -0.09,-0.09 -0.04,-0.22 0,-0.31 0.38,-0.9 1.03,-0.65 1.66,-0.57 0.42,0.14 1.09,-0.16 1.19,0.61 0.03,0.23 -0.34,0.05 -0.48,0.13 -0.19,0.09 -0.33,0.27 -0.27,0.5 0,0.23 0.22,0.22 0.43,0.24 0.79,-0.11 1.48,-0.1 2.4,-0.13 0.35,-0.03 -0.37,-0.76 -0.54,-1.03 z m -2.4,-1.17 c -0.26,0.21 -1.23,0.18 -1.6,0.16 -0.45,-0.11 0.44,-1.22 0.31,-1.52 0.08,-0.28 0.03,-0.77 0.39,-0.83 0.3,0 0.26,0.51 0.34,0.83 0.14,0.3 0.62,1.05 0.56,1.36 z"
   id="path14755"
   inkscape:connector-curvature="0"
   style="clip-rule:evenodd;fill:#bd2b31;fill-rule:evenodd" />
	<path
   class="st2"
   d="m 159.98,75.7 c -0.13,-0.38 -0.29,-0.35 -0.82,-0.37 -0.76,0.22 -1.44,0.61 -1.95,1.31 -0.86,0.63 -1.71,1.37 -2.68,1.75 -0.32,0.23 -0.68,0.09 -1.03,0.25 -0.03,0.11 0,0.21 0.05,0.29 0.35,0.16 0.65,0.42 1.03,0.5 0.42,0.16 0.6,0.88 1.14,0.49 -0.02,-0.25 -0.27,-0.54 -0.06,-0.77 0.94,-0.29 1.32,0.18 2.01,0.72 0.14,0.16 0.18,0.31 0.04,0.52 -0.31,0.07 -0.65,0.2 -0.92,-0.01 -0.07,0 -0.14,0.09 -0.14,0.18 0.02,0.51 0.9,1.06 1.19,1.35 0.23,0.45 0.97,0.89 1.45,0.98 0.15,-0.05 0.27,-0.21 0.26,-0.38 -0.33,-0.9 -0.6,-0.17 -0.18,-1.06 0.14,-0.27 0.49,-4.23 0.65,-4.48 -0.09,-0.75 -0.04,-1.27 -0.04,-1.27 z m -1.84,3.02 c -0.05,0.31 -1.2,-0.38 -1.41,-0.65 -0.11,-0.11 0.77,-0.72 0.81,-0.83 0.41,-0.29 0.48,-0.5 0.93,-0.71 l 0.07,0.07 c -0.05,0.48 -0.29,1.43 -0.4,2.12 z"
   id="path14757"
   inkscape:connector-curvature="0"
   style="clip-rule:evenodd;fill:#bd2b31;fill-rule:evenodd" />
	<path
   class="st3"
   d="m 145.01,69.99 c -0.03,0.6 -0.12,1.21 -0.21,1.8 -0.04,0.12 -0.16,0.21 -0.29,0.2 -0.29,-0.03 -0.7,-0.03 -0.62,-1.3 -0.57,-0.63 -1.35,-0.3 -1.38,0.37 -0.07,1.93 -0.36,2.21 -0.16,3.52 0.29,0.34 0.29,0.83 0.72,1.08 0.09,0.18 -0.05,0.38 -0.23,0.41 -0.51,0.09 -0.9,-0.21 -1.39,-0.23 -0.61,-0.05 -1.24,0.12 -1.8,-0.07 -0.18,-0.09 -0.1,-0.31 -0.03,-0.43 1.26,-0.83 0.99,-2.47 1.1,-3.83 -0.02,-0.22 -0.13,-0.43 -0.34,-0.52 -1.05,-0.44 -0.85,0.34 -1.33,0.45 -0.11,0.11 -0.34,0.11 -0.45,0 -0.36,-0.25 -0.13,-0.7 -0.13,-1.04 0.09,-0.27 0.05,-0.68 0.39,-0.72 1.37,-0.16 2.82,0.13 4.17,-0.09 0.68,0.09 1.58,-0.21 1.98,0.4 z"
   id="path14759"
   inkscape:connector-curvature="0"
   style="fill:#bd2b31" />
	<path
   class="st3"
   d="m 152.15,71.61 c 0.32,0.11 0.64,0.29 0.86,0.56 -0.08,0.7 -1,0.29 -1.26,0.83 -0.41,1.31 -1.93,2.82 -0.84,4.26 0.04,0.14 -0.03,0.29 -0.18,0.32 -0.56,0.02 -1.4,-0.72 -1.86,-0.97 -0.48,-0.11 -1.06,-0.09 -1.37,-0.54 0.06,-0.54 0.76,-0.4 1.1,-0.7 0.81,-0.34 0.87,-1.4 1.16,-2.08 0.09,-0.5 0.47,-0.97 0.36,-1.51 -0.23,-0.29 -0.81,-0.43 -0.56,-0.92 0.23,-0.41 0.7,-0.04 1.04,-0.07 0.3,0.38 1.21,0.61 1.55,0.82 z"
   id="path14761"
   inkscape:connector-curvature="0"
   style="fill:#bd2b31" />
	<path
   class="st3"
   d="m 167.33,83.12 c 0.66,0.63 0.97,1.46 1.4,2.21 0.07,0.3 0.34,0.63 0.11,0.95 -0.23,0.32 -0.61,0.38 -0.99,0.38 -0.18,-0.09 -0.13,-0.32 -0.09,-0.47 0.29,-0.99 -0.13,-1.55 -0.92,-1.6 -0.15,0.52 -1,0.28 -0.77,0.91 0.19,0.25 0.51,0.58 0.43,0.93 0.03,0.38 -0.34,0.56 -0.62,0.7 l -0.23,-0.01 c -0.28,-0.4 -0.68,-0.72 -0.77,-1.17 -0.07,-0.09 -0.21,-0.16 -0.32,-0.07 -0.16,0.32 -0.76,0.52 -0.58,0.99 0.43,0.42 0.4,1.04 0.94,1.38 0.25,0.07 0.45,-0.1 0.71,-0.1 0.38,0.16 0.98,-0.07 1.23,0.29 0.05,0.4 -0.42,0.36 -0.64,0.49 -0.6,0.22 -1.29,0.52 -1.93,0.23 -0.66,-0.6 -0.68,-1.44 -1.31,-2.03 l -0.04,-0.22 c -0.46,-0.47 -0.86,-0.97 -1.44,-1.2 -0.17,-0.09 -0.13,-0.33 -0.07,-0.45 0.28,-0.65 0.78,0.02 1.24,-0.13 0.93,-0.49 1.91,-0.83 2.75,-1.51 0.36,-0.05 0.61,-0.39 0.81,-0.66 -0.05,-0.32 -0.18,-0.65 -0.07,-0.97 0.15,-0.09 0.34,-0.22 0.48,-0.07 0.38,0.32 0.43,0.8 0.69,1.2 z"
   id="path14763"
   inkscape:connector-curvature="0"
   style="fill:#bd2b31" />
	<path
   class="st3"
   d="m 114.08,84.98 c 0.11,0.56 -0.55,0.91 -0.9,1.29 -0.27,0.52 -0.38,1.49 -0.05,2.05 0.31,0.49 0.7,1.12 1.31,1.17 l 1.21,-0.12 c 0.12,-0.31 0.44,-0.49 0.41,-0.88 -0.08,-0.98 -0.99,0.12 -1.22,-0.36 -0.04,-0.56 0.26,-1.35 0.66,-1.72 0.59,-0.11 1.14,0.28 1.63,0.64 0.21,0.09 0.57,0.05 0.63,0.38 v 0.34 c -0.18,0.75 -0.25,1.62 -0.63,2.32 -0.5,0.63 -1.01,0.84 -1.84,1.17 -0.48,0.19 -1.08,0.33 -1.53,0.15 -0.67,-0.63 -1.8,-0.95 -1.98,-1.98 -0.79,-1.39 -0.05,-3.47 0.76,-4.6 0.42,-0.24 1.29,-0.58 1.54,0.15 z"
   id="path14765"
   inkscape:connector-curvature="0"
   style="fill:#bd2b31" />
	<path
   class="st2"
   d="m 124.9,123.1 c -0.09,-0.2 -0.3,-0.45 -0.56,-0.41 -1.13,0.49 -2.14,1.24 -3.34,1.58 -0.49,0.25 -0.95,0.57 -1.53,0.67 -0.49,0.16 -0.9,-0.09 -1.37,-0.11 -0.12,0.06 -0.18,0.18 -0.2,0.31 0.77,0.58 1.42,1.44 2.08,2.12 0.31,-0.27 0.11,-0.77 0.4,-1.06 0.34,-0.14 0.7,0.07 1.04,0.16 0.61,0.34 1.33,0.97 1.31,1.75 -0.05,0.16 -0.48,0.08 -0.63,0.12 -0.04,0.18 -0.32,0.16 -0.1,0.38 l 1.15,0.67 c 0.49,0.31 0.77,0.96 1.31,1.1 0.21,-0.04 0.16,-0.32 0.14,-0.5 -1.19,-2.3 0.66,-4.42 0.3,-6.78 z m -2.08,3.31 c -0.36,0.07 -0.89,-0.6 -1.12,-0.88 -0.11,-0.11 -0.14,-0.27 -0.09,-0.43 0.43,-0.27 1.31,-1.11 1.81,-1.14 l 0.07,0.09 c -0.03,0.59 -0.55,1.78 -0.67,2.36 z"
   id="path14767"
   inkscape:connector-curvature="0"
   style="clip-rule:evenodd;fill:#bd2b31;fill-rule:evenodd" />
	<path
   class="st2"
   d="m 163.04,124.67 c -0.93,-0.24 -0.41,0.19 -1.33,-0.07 -0.67,-0.19 -2.78,-1.05 -3.45,-1.26 -0.42,-0.16 -0.92,-0.58 -1.37,-0.2 -0.23,0.7 0.22,1.26 0.15,1.99 0.29,1.02 0.78,2.85 0.43,3.21 -0.44,0.45 -0.7,0.84 -0.36,1.27 0.32,0.11 0.44,-0.18 0.68,-0.33 0.52,-0.41 1.19,-0.66 1.58,-1.24 -0.07,-0.34 -0.52,-0.11 -0.68,-0.38 -0.18,-0.5 0.57,-0.7 0.82,-1.04 0.41,-0.2 0.63,-0.76 1.13,-0.76 0.56,0.18 -0.03,0.59 0.02,0.93 0.04,0.05 0.11,0.16 0.2,0.14 0.85,-0.39 1.49,-1.31 2.27,-1.85 0.03,-0.12 0.03,-0.3 -0.09,-0.41 z m -4.73,1.82 c -0.34,-0.34 -0.57,-1.62 -0.51,-2.08 0.09,-0.14 0.46,0.2 0.58,0.25 l 1.13,0.51 c 0.08,0.05 0.3,0.11 0.31,0.19 -0.36,0.43 -0.95,1.29 -1.51,1.13 z"
   id="path14769"
   inkscape:connector-curvature="0"
   style="clip-rule:evenodd;fill:#bd2b31;fill-rule:evenodd" />
	<path
   class="st3"
   d="m 118.08,115.46 0.04,0.32 c -0.36,1.01 -0.89,2.97 -0.96,4.08 0.09,0.16 0.66,-0.45 0.79,-0.52 0.63,-0.25 1.04,-0.95 1.69,-1.13 0.38,0.13 0.46,0.31 0.69,0.63 0.2,0.41 0.72,0.79 0.54,1.29 -0.43,0.38 -0.59,-0.41 -1.04,-0.27 -0.88,0.18 -1.58,0.77 -2.36,1.24 -0.43,0.58 -1.08,0.76 -1.58,1.22 -0.23,-0.11 -0.68,0.04 -0.7,-0.34 0.07,-1.35 0.84,-2.81 0.71,-4.22 -0.15,-0.19 -1.5,1 -1.67,1.09 -0.7,0.49 -0.36,0.44 -0.58,1.27 -0.2,0.07 -0.39,-0.14 -0.54,-0.27 -0.18,-0.38 -0.25,-0.81 -0.47,-1.17 -0.2,-0.2 -0.47,-0.38 -0.38,-0.7 0.92,0.09 1.01,0.06 1.79,-0.24 0.59,-0.43 2.88,-2.01 2.9,-2.27 0.04,-0.22 -0.29,-0.39 -0.17,-0.6 0.16,-0.21 0.47,-0.16 0.66,-0.05 0.3,0.14 0.53,0.37 0.64,0.64 z"
   id="path14771"
   inkscape:connector-curvature="0"
   style="fill:#bd2b31" />
	<path
   class="st3"
   d="m 165.33,116.16 c 0.16,0.15 0.34,0.34 0.2,0.54 -0.66,0.23 -1.42,0.23 -2.01,0.68 -0.23,0.21 -0.61,0.43 -0.64,0.78 0.22,0.41 0.75,0.88 1.16,0.85 0.56,-0.23 -0.2,-1.06 0.6,-1.06 0.57,0.02 0.77,0.1 1.05,0.55 0.04,0.09 0.13,0.23 0.04,0.34 -0.24,0.2 -0.69,-0.02 -0.8,0.4 -0.01,0.2 0.02,0.64 0.24,0.78 0.2,0.29 0.56,0.36 0.88,0.29 0.41,-0.11 0.58,-0.56 0.81,-0.84 0.29,-0.6 -0.38,-0.97 -0.7,-1.39 -0.02,-0.23 0.13,-0.45 0.34,-0.54 0.79,0.16 1.26,0.75 1.98,1.05 0.06,0.23 -0.07,0.45 -0.18,0.63 -1.1,1.31 -1.82,2.5 -3.12,3.67 -0.14,0.09 -0.27,0.3 -0.44,0.21 -0.34,-0.32 0.44,-0.89 0.22,-1.18 -0.47,-0.63 -1.72,-1.92 -2.72,-2.32 -0.58,-0.16 -0.67,0.09 -1.02,0.5 -0.2,0.16 -0.44,0.23 -0.65,0.14 -0.23,-0.11 -0.23,-0.33 -0.16,-0.53 0.21,-0.58 0.92,-0.95 1.23,-1.47 0.58,-1.01 1.25,-1.61 1.96,-2.58 0.67,-0.45 1.13,0.34 1.73,0.5 z"
   id="path14773"
   inkscape:connector-curvature="0"
   style="fill:#bd2b31" />
	<path
   class="st3"
   d="m 129.78,125.87 c 1.49,0.5 2.95,1.06 4.48,1.49 0.21,0.09 0.43,0.25 0.56,0.43 0.09,0.54 -0.34,0.92 -0.47,1.4 -0.15,0.13 -0.34,0.11 -0.49,0 -0.4,-0.41 -0.32,-1.42 -1.17,-1.22 -0.59,0.16 -0.64,1.02 -0.92,1.46 -0.18,0.72 -0.72,1.33 -0.7,2.1 0.18,0.43 0.47,0.61 0.79,0.93 0.07,0.14 -0.05,0.3 -0.2,0.36 -0.45,0.03 -0.74,-0.32 -1.15,-0.4 -0.74,-0.27 -1.62,-0.24 -2.28,-0.68 -0.09,-0.09 0,-0.2 0,-0.29 0.31,-0.14 0.65,-0.18 0.95,-0.34 0.68,-0.81 0.74,-1.87 1.22,-2.77 0.09,-0.34 0.45,-0.61 0.34,-0.99 -0.25,-0.21 -0.54,-0.31 -0.86,-0.36 -0.45,0.29 -0.7,0.79 -1.12,1.08 -0.14,-0.03 -0.34,-0.05 -0.4,-0.23 -0.03,-0.79 0.27,-1.44 0.63,-2.07 0.28,-0.06 0.55,0.03 0.79,0.1 z"
   id="path14775"
   inkscape:connector-curvature="0"
   style="fill:#bd2b31" />
	<path
   class="st3"
   d="m 141.98,128.38 c -0.06,0.21 0.07,0.38 0.24,0.49 0.17,0.11 0.48,0.14 0.45,0.41 0.08,1.28 0.09,2.42 -0.65,3.45 -0.35,0.38 -0.84,0.46 -1.32,0.28 -1.17,-0.7 -0.36,-1.91 -0.62,-3.02 0.04,-0.41 -0.19,-0.96 0.21,-1.26 0.12,-0.1 0.32,-0.11 0.36,-0.29 -0.05,-0.1 -0.05,-0.24 -0.19,-0.29 -0.68,-0.1 -1.54,0.19 -2.23,-0.01 -0.16,-0.03 -0.35,0.05 -0.4,0.23 -0.13,0.18 0.05,0.35 0.21,0.4 0.28,-0.01 0.41,0.24 0.51,0.45 0.42,1.53 -0.37,3.1 0.44,4.51 0.72,0.62 2.31,0.65 3.23,0.46 1.93,-0.94 0.94,-3.23 1.62,-4.91 0.23,-0.18 0.65,-0.12 0.75,-0.29 0.11,-0.19 0.22,-0.39 0.09,-0.62 -0.64,-0.23 -1.48,-0.09 -2.13,-0.1 -0.22,0.02 -0.46,-0.09 -0.57,0.11 z"
   id="path14777"
   inkscape:connector-curvature="0"
   style="fill:#bd2b31" />
	<path
   class="st2"
   d="m 155.22,129.65 c -0.18,-0.16 -0.41,-0.25 -0.66,-0.18 -0.34,0.09 -0.4,0.45 -0.48,0.72 -0.13,0.38 -0.56,0.29 -0.9,0.34 -0.29,-0.09 -1.23,-0.67 -1.05,-0.95 0.37,-0.58 0.76,-1.47 0.14,-2.25 -0.6,-1.26 -2.25,-0.96 -3.22,-0.56 -0.73,0.5 -1.62,0.66 -2.35,1.13 -0.07,0.2 0.03,0.41 0.17,0.56 0.27,0.25 0.65,-0.1 0.96,-0.09 0.4,0.36 0.54,0.84 0.79,1.28 0.29,0.77 0.61,1.53 0.79,2.36 0.07,0.47 -0.38,0.97 0.03,1.29 0.45,-0.23 0.97,-0.34 1.46,-0.49 0.52,-0.3 -0.39,-1.47 -0.3,-1.88 0.07,-0.14 0.22,-0.21 0.38,-0.18 0.34,0.23 1.52,0.83 1.92,0.92 1.2,0 1.91,0.02 2.45,-1.18 0,-0.28 0.16,-0.62 -0.13,-0.84 z M 151,129.34 c -0.18,0.18 -0.55,0.37 -0.78,0.27 -0.25,-0.21 -1.14,-1.82 -0.67,-2.05 0.6,-0.13 1.3,-0.02 1.62,0.61 0.12,0.41 -0.03,0.87 -0.17,1.17 z"
   id="path14779"
   inkscape:connector-curvature="0"
   style="clip-rule:evenodd;fill:#bd2b31;fill-rule:evenodd" />
	<path
   class="st3"
   d="m 124.21,57.2 c 0.02,0.83 0.57,1.26 0.32,2 -0.18,0.21 -0.14,0.29 -0.43,0.29 -0.12,-0.05 -0.32,0.03 -0.38,-0.14 -0.05,-0.36 -0.43,-0.74 -0.76,-0.87 -0.38,-0.02 -1.61,0.51 -1.87,0.95 -0.12,0.29 -0.07,0.61 0.15,0.86 1.04,1.06 2.39,0.04 3.52,-0.09 0.47,0.05 0.88,0.32 1.28,0.63 0.68,0.75 1.08,1.82 0.74,2.82 -0.56,1.06 -1.55,2.29 -2.9,2.16 -0.49,0.14 -0.86,-0.47 -1.24,-0.09 -0.02,0.29 0.07,0.63 -0.23,0.74 -0.23,0.05 -0.5,0.04 -0.69,-0.14 -0.29,-0.41 0.08,-0.86 -0.03,-1.31 -0.07,-0.49 -0.48,-0.78 0.14,-1.14 0.73,-0.09 1.46,0.95 2.08,0.74 0.59,-0.2 0.9,-0.35 1.13,-0.99 0.1,-0.29 0.16,-0.63 -0.04,-0.9 -0.18,-0.22 -0.43,-0.36 -0.74,-0.36 -0.75,0.07 -1.22,0.83 -2.08,0.68 -0.81,-0.09 -1.58,-0.36 -2.07,-1.13 -0.39,-0.65 -0.81,-1.44 -0.5,-2.25 0.25,-0.72 0.88,-1.35 1.58,-1.65 0.51,-0.18 1.16,-0.37 1.68,-0.28 0.59,-0.13 0.35,-1.11 1.18,-0.73 z"
   id="path14781"
   inkscape:connector-curvature="0"
   style="fill:#bd2b31" />
	<path
   class="st3"
   d="m 163.89,60.15 c 0.29,0.29 0.31,0.88 0.83,0.93 0.27,0.02 0.66,-0.09 0.74,0.27 -0.25,0.57 -0.91,0.77 -1.33,1.2 l -0.62,0.49 c -0.14,0.05 -0.26,-0.09 -0.3,-0.2 -0.34,-0.74 0.36,-0.83 -0.08,-1.5 -0.22,-0.31 -0.45,-0.72 -0.84,-0.79 -0.27,-0.02 -0.51,0.2 -0.63,0.41 -0.49,0.92 0.23,1.6 0.45,2.38 0.36,0.43 0.5,0.95 0.64,1.47 0.21,0.77 -0.09,1.47 -0.64,1.96 -0.83,0.63 -1.67,0.79 -2.73,0.47 -0.51,-0.29 -1.08,-0.47 -1.49,-0.93 l -0.58,-0.92 c -0.35,-0.09 -0.79,-0.02 -1.04,-0.32 -0.11,-0.2 0.03,-0.41 0.15,-0.58 l 1.53,-1.69 c 0.11,-0.11 0.34,-0.09 0.47,-0.02 0.18,0.09 0.19,0.31 0.25,0.47 -0.03,0.5 -0.59,0.79 -0.5,1.35 -0.07,0.67 0.62,1.04 1.08,1.35 0.3,0.14 0.79,0.16 1.1,0.02 0.4,-0.23 0.59,-0.68 0.43,-1.12 -0.05,-0.84 -1.08,-1.28 -1.21,-2.07 -0.12,-0.72 -0.4,-1.64 0.13,-2.25 0.7,-1.04 1.96,-1.26 3.11,-1.12 0.4,0.13 0.8,0.38 1.08,0.74 z"
   id="path14783"
   inkscape:connector-curvature="0"
   style="fill:#bd2b31" />
	<path
   class="st3"
   d="m 114.32,62.54 c 0.11,0.66 -0.56,0.98 -0.06,1.58 0.58,1.03 1.83,1.87 2.3,2.91 0.31,0.4 0.52,0.88 1.01,1.1 0.52,0.31 1.13,-0.52 1.34,0.22 -0.22,0.54 -1.02,0.81 -1.4,1.19 -0.56,0.4 -1.21,0.94 -1.53,1.53 -0.14,0.12 -0.38,0.23 -0.54,0.09 -0.43,-0.63 0.44,-1.38 0.11,-2.08 -0.16,-0.48 -0.67,-0.84 -0.92,-1.29 -0.66,-1.12 -1.67,-2.19 -2.81,-2.82 -0.4,-0.2 -0.95,0.37 -1.18,-0.08 0.02,-0.34 0.36,-0.61 0.63,-0.79 0.77,-0.6 1.64,-0.99 2.36,-1.73 0.23,-0.11 0.62,-0.11 0.69,0.17 z"
   id="path14785"
   inkscape:connector-curvature="0"
   style="fill:#bd2b31" />
	<path
   class="st3"
   d="m 168.11,65.54 c 0.5,0.43 0.52,1.04 0.43,1.69 -0.09,0.65 -0.72,1.03 -1.31,1.17 -0.63,0 -1.4,0 -1.69,-0.68 -0.22,-0.52 -0.05,-1.17 0.29,-1.62 0.29,-0.31 0.57,-0.67 0.95,-0.81 0.49,-0.02 0.96,0 1.33,0.25 z"
   id="path14787"
   inkscape:connector-curvature="0"
   style="fill:#bd2b31" />
	<path
   class="st3"
   d="m 107.99,68.23 c 0.12,0.2 0.05,0.47 -0.02,0.66 -0.2,0.21 -0.41,0.47 -0.72,0.34 -0.22,-0.09 -0.57,-0.53 -0.79,-0.3 -0.16,0.15 -0.65,1.13 -0.53,1.29 0.23,0.18 0.75,0.44 1.05,0.43 0.95,-0.13 2.25,-1.26 3.35,-0.9 0.59,0 2.41,0.34 2.41,2.22 0,0.56 0.03,1.18 -0.23,1.68 -0.42,0.77 -1.1,1.73 -2.03,1.91 -0.18,-0.04 -0.42,-0.06 -0.59,0.02 -0.25,0.27 -0.11,0.76 -0.47,0.93 -0.68,0.2 -0.81,-0.65 -1.11,-1.02 -0.22,-0.5 -0.36,-0.76 -0.45,-1.32 0.02,-0.12 0.15,-0.14 0.25,-0.18 1.17,-0.46 1.03,1.25 2.84,-0.1 0.31,-0.23 0.36,-0.61 0.36,-1.01 -0.27,-0.43 -0.07,-1.23 -1.24,-1.01 -1.17,0.22 -2.03,0.76 -3.11,0.97 -0.81,0.05 -1.51,-0.36 -2.05,-0.95 -0.34,-0.68 -0.5,-1.67 -0.11,-2.39 0.36,-0.47 1.23,-2.27 1.65,-2.02 0.6,0.2 1.09,0.34 1.54,0.75 z"
   id="path14789"
   inkscape:connector-curvature="0"
   style="fill:#bd2b31" />
	<path
   class="st3"
   d="m 102.09,74.02 c 0.22,0.42 -0.23,0.72 -0.14,1.17 0.18,0.86 0.92,1.62 1.76,1.84 1.4,0.9 2.51,1.87 3.99,2.61 0.12,0.09 0.12,0.27 0.09,0.39 -0.65,0.72 -1.49,0.51 -2.37,0.52 -1.42,0.02 -2.93,0.07 -4.21,0.54 0.43,0.36 0.75,0.88 1.37,0.99 0.5,0.61 1.2,0.9 1.96,0.75 0.34,-0.02 0.43,-0.61 0.81,-0.45 0.23,0.11 0.3,0.38 0.23,0.61 -0.68,1.08 -1.04,2.28 -1.69,3.38 -0.09,0.2 -0.33,0.32 -0.49,0.14 -0.36,-0.32 0.02,-0.74 -0.09,-1.15 0.01,-0.88 -0.86,-1.31 -1.46,-1.78 -1.04,-0.7 -2.21,-1.29 -3.53,-1.22 -0.45,-0.03 -0.65,0.63 -1.13,0.45 -0.34,-0.22 -0.04,-0.63 0.05,-0.9 0.43,-0.77 0.78,-1.41 1.73,-1.61 1.4,-0.4 3.05,-0.75 4.6,-0.82 0.27,-0.01 0.43,-0.17 0.59,-0.36 -0.58,-0.54 -1.24,-1.01 -1.92,-1.41 -0.43,-0.27 -0.71,-0.47 -1.21,-0.56 -0.27,0.14 -0.5,0.46 -0.84,0.27 -0.16,-0.13 -0.4,-0.23 -0.43,-0.45 -0.04,-0.25 0.25,-0.36 0.3,-0.57 0.49,-0.88 0.6,-1.92 1.46,-2.57 0.23,-0.01 0.41,0.04 0.57,0.19 z"
   id="path14791"
   inkscape:connector-curvature="0"
   style="fill:#bd2b31" />
	<path
   class="st3"
   d="m 96.39,88.1 c 0.29,0.42 1.17,0.13 1.02,0.81 -0.25,0.36 -1.17,0.03 -1.53,0.16 -0.49,0.32 -0.76,0.87 -0.7,1.57 0.01,0.27 0.15,0.72 0.39,0.82 0.42,0.09 1.29,0.5 1.57,0.01 0.02,-0.34 -0.05,-1.42 0.1,-1.53 0.36,-0.09 0.4,0.11 0.74,0.1 0.42,-0.03 0.97,0 0.88,0.16 -0.43,0.77 -0.43,1.21 -0.85,1.62 0,0.11 0.09,0.14 0.16,0.16 0.86,-0.07 1.76,0.49 2.55,0.58 0.16,-0.56 0.17,-1.55 0.3,-2.14 0.11,-0.92 -1.47,-1.28 -1.15,-2.2 0.16,-0.27 0.47,-0.25 0.72,-0.18 0.63,0.27 1.13,0.29 1.56,0.83 0.61,0.82 0.13,2.4 -0.21,3.19 -0.47,0.97 -0.56,3.81 -0.72,4.03 -0.14,0.11 -0.38,0.14 -0.54,0.04 -0.7,-0.52 -0.1,-1.88 -1.69,-1.98 -1.36,-0.09 -2.62,-0.63 -3.99,-0.94 -0.81,-0.07 -0.61,1.28 -1.46,0.92 -0.54,-0.74 0.75,-5.01 1.07,-6.14 0.13,-0.16 0.13,-0.15 0.31,-0.21 0.57,-0.06 0.97,0.29 1.47,0.32 z"
   id="path14793"
   inkscape:connector-curvature="0"
   style="fill:#bd2b31" />
	<path
   class="st3"
   d="m 93.62,100.48 c 1.19,0.32 2.61,0.1 3.85,0.27 0.76,0 1.69,0.18 2.14,-0.5 0.07,-0.18 0.14,-0.52 0.38,-0.58 0.2,-0.02 0.49,-0.09 0.65,0.07 l 0.09,0.18 c -0.07,1.14 -0.16,2.21 0.09,3.29 0.01,0.31 0.03,0.63 -0.27,0.78 -0.72,0.14 -1.02,-1.06 -1.69,-1.19 -1.23,-0.34 -2.66,-0.18 -4.01,-0.22 -0.83,-0.05 -1.3,0.55 -1.82,1.17 -0.12,0.09 -0.66,0.04 -0.68,-0.4 -0.05,-1.02 -0.32,-1.67 -0.08,-2.8 0.08,-0.35 0.05,-0.87 0.46,-1 0.49,0.03 0.44,0.74 0.89,0.93 z"
   id="path14795"
   inkscape:connector-curvature="0"
   style="fill:#bd2b31" />
	<path
   class="st3"
   d="m 100.54,107.53 c 0.27,0.06 0.68,-0.05 0.79,0.27 -0.13,0.61 0.16,0.93 0.23,1.47 0.25,1.1 1.26,4.1 1.26,4.52 -0.07,0.2 -0.25,0.42 -0.45,0.49 -0.97,0.07 -0.43,-0.86 -1.44,-0.64 -1.04,0.29 -3.43,0.99 -4.58,1.01 -0.18,0.05 -0.43,0.09 -0.45,0.29 -0.02,0.25 0.07,0.68 -0.25,0.77 -0.38,0.02 -0.59,-0.38 -0.79,-0.63 -0.4,-1.01 -1.33,-1.91 -0.99,-3.09 0.11,-0.23 0.34,-0.23 0.56,-0.25 0.57,0.04 0.48,0.95 1.1,0.84 0.61,-0.16 1.64,-0.23 2.3,-0.3 0.79,-0.5 3.01,0.11 2.85,-1.01 -0.45,-3.17 -1.43,-2.43 -2.45,-3.54 -0.31,-0.33 0.34,-0.29 0.5,-0.43 0.68,-0.13 1.2,0.16 1.81,0.23 z"
   id="path14797"
   inkscape:connector-curvature="0"
   style="fill:#bd2b31" />
	<path
   class="st3"
   d="m 181.07,109.03 c 1.19,0.83 2.71,0.81 4.15,1.06 0.54,0.05 1.14,0.62 1.62,0.16 0.17,-0.27 0.25,-0.61 0.56,-0.79 0.27,-0.04 0.54,0.14 0.6,0.4 -0.11,0.72 -0.52,1.3 -0.63,1.98 -0.48,0.95 -0.81,2 -0.86,3.13 -0.09,0.22 -0.21,0.5 -0.48,0.58 -0.74,0.07 -1.37,-0.09 -2.02,-0.21 -0.23,-0.11 -0.52,-0.61 -0.25,-0.61 1.67,-0.02 2.48,-2.2 2.34,-2.47 -0.12,-0.25 -1.58,-0.31 -2.16,-0.49 -0.42,-0.14 0.25,1.25 -0.47,1.5 -0.61,0.11 -0.25,-0.1 -0.86,-0.05 -0.2,-0.09 -0.38,-0.25 -0.45,-0.47 -0.07,-0.25 -0.01,-0.54 0.2,-0.72 0.11,-0.07 0.23,-0.14 0.27,-0.28 0.07,-0.27 -0.27,-0.38 -0.52,-0.45 -0.68,-0.07 -1.76,-0.97 -2.17,-0.34 -0.2,0.85 -0.66,1.94 0.57,3.22 0.09,0.09 -0.03,0.27 -0.18,0.32 l -0.38,-0.06 -1.46,-1.01 c -0.25,-0.33 -0.11,-0.81 -0.03,-1.15 0.25,-1.03 0.6,-1.98 0.94,-2.97 0.18,-0.41 0.29,-0.88 0.68,-1.17 0.7,-0.05 0.44,0.68 0.99,0.89 z"
   id="path14799"
   inkscape:connector-curvature="0"
   style="fill:#bd2b31" />
	<path
   class="st3"
   d="m 177.53,117.49 0.03,0.56 c 0.9,0.93 1.96,1.67 3.11,2.08 0.83,0.68 1.77,1.15 2.7,1.62 0.25,0.16 0.45,0.43 0.33,0.75 -0.88,1.01 -2.56,0.61 -3.78,0.61 -0.15,-0.05 -0.77,-0.19 -0.92,-0.16 -0.18,0.22 0.3,0.88 0.38,1.08 0.46,0.93 1.01,1.58 1.42,2.54 0.04,0.21 -0.13,0.34 -0.21,0.48 -0.9,0.09 -1.56,-0.63 -2.36,-0.93 -0.49,-0.19 -0.74,-0.54 -1.18,-0.7 -0.9,-0.31 -2.09,-1.49 -2.91,-0.86 -0.3,0.23 -0.58,0.04 -0.88,-0.18 0.04,-0.7 0.49,-1.33 0.81,-1.96 0.34,-0.18 0.2,-0.95 0.75,-0.72 0.58,0.25 -0.1,1.06 0.55,1.15 0.6,0.27 2.96,1.38 3.43,1.93 0.23,0.11 -1.95,-2.83 -1.97,-3.54 0.02,-0.27 4,0.27 4.05,0.08 -0.06,-0.31 -2.34,-1.25 -2.56,-1.38 -0.61,-0.02 -1.26,-0.97 -2.08,0.35 -0.12,0.19 -0.52,0.04 -0.61,-0.21 0.06,-0.27 0.29,-0.47 0.36,-0.74 0.41,-0.68 0.21,-1.71 1.06,-2.16 0.19,-0.01 0.36,0.13 0.48,0.31 z"
   id="path14801"
   inkscape:connector-curvature="0"
   style="fill:#bd2b31" />
	<path
   class="st3"
   d="m 171.77,127.87 c 0.27,0.75 1.29,0.96 1.88,1.57 0.99,0.64 1.57,2.18 2.85,2.18 0.47,-0.01 1.04,-0.29 1.29,0.12 0.22,0.66 -0.58,0.7 -0.92,1.01 -0.47,0.6 -1.08,1.12 -1.53,1.65 -0.14,0.09 -0.32,0.05 -0.45,-0.03 -0.21,-0.31 0.28,-0.74 0.1,-1.06 -0.27,-0.49 -1.43,-1.34 -1.95,-1.61 -0.86,-0.65 -1.19,-1.43 -2.21,-1.84 -0.6,-0.16 -1.14,0.69 -1.61,0.03 -0.02,-0.84 0.9,-1.23 1.23,-1.95 0.38,-0.31 0.54,-0.8 0.96,-1.04 0.52,0.03 0.21,0.66 0.36,0.97 z"
   id="path14803"
   inkscape:connector-curvature="0"
   style="fill:#bd2b31" />
	<path
   class="st3"
   d="m 112.49,130.15 c 0.05,0.88 0.79,1.53 1.56,1.8 0.07,0.19 -0.07,0.4 -0.25,0.45 -0.4,0.18 -0.88,0.14 -1.33,0.2 -0.41,0.38 -0.45,0.23 -0.97,0.36 -0.19,0.07 -0.43,0 -0.5,-0.2 v -0.21 c 0.34,-0.27 0.57,-0.41 0.69,-0.88 0.05,-0.78 -0.66,-1.42 -1.31,-1.84 -0.32,-0.11 -0.6,-0.06 -0.93,0.1 -0.41,0.33 -0.16,0.74 -0.04,1.23 0.27,0.7 0.32,1.27 0.39,2.04 0,0.95 -0.18,1.82 -0.88,2.47 -0.58,0.32 -1.17,0.68 -1.9,0.47 -0.63,0.02 -1.03,-0.57 -1.48,-0.96 -0.41,-0.66 -0.88,-1.27 -1.15,-1.98 0.02,-0.45 0.52,-0.58 0.81,-0.79 l 1.12,-0.29 c 0.54,0.41 -0.29,0.68 -0.32,1.08 -0.05,0.58 0.16,1.06 0.65,1.4 0.43,0.15 0.85,0.07 1.23,-0.14 0.32,-0.23 0.14,-0.63 0.16,-0.97 -0.16,-1.31 -1.06,-2.46 -0.7,-3.87 0.14,-0.48 0.4,-0.99 0.88,-1.28 1.27,-0.47 2.64,0.06 3.61,0.9 0.32,0.26 0.52,0.58 0.66,0.91 z"
   id="path14805"
   inkscape:connector-curvature="0"
   style="fill:#bd2b31" />
	<path
   class="st3"
   d="m 158.62,138.14 c -0.11,0.38 -0.78,0.48 -0.47,0.93 0.3,0.68 0.23,1.47 0.77,2.07 0.27,0.74 0.56,2.19 1.28,2.69 0.39,0.45 0.86,-0.1 1.41,0.01 0.2,0.14 0.3,0.38 0.28,0.63 -0.16,0.58 -0.84,0.38 -1.26,0.61 -1.22,0.45 -2.7,1.05 -3.89,1.56 -0.34,0.13 -0.38,0.74 -0.84,0.5 -0.52,-0.5 -0.5,-1.31 -0.96,-1.88 -0.03,-0.16 -0.05,-0.4 0.13,-0.49 0.31,-0.11 0.45,0.22 0.7,0.27 0.36,0.04 0.39,0.54 0.79,0.38 0.27,-0.32 1.38,-0.69 1.38,-0.69 l -0.56,-1.69 c -0.16,-0.16 -0.38,-0.22 -0.59,-0.16 -0.36,0.27 -0.2,0.77 -0.56,1 -0.21,0.04 -0.34,-0.21 -0.41,-0.36 -0.3,-0.58 -0.4,-0.82 -0.3,-1.5 0.37,-0.43 0.81,0.16 1.25,0.05 0.2,-0.14 0.09,-0.41 0.02,-0.59 -0.59,-0.45 -0.41,-2.12 -1.53,-1.66 -0.45,0.18 -1.21,0.38 -1.36,0.93 -0.18,0.32 -0.12,0.86 -0.57,0.95 -0.18,0.03 -0.38,-0.02 -0.43,-0.2 -0.07,-0.36 0.15,-0.59 0.17,-0.92 0,-0.33 -0.33,-0.86 0.11,-1.03 1.15,-0.49 2.44,-0.67 3.59,-1.15 0.42,-0.23 1.25,-0.84 1.73,-0.62 z"
   id="path14807"
   inkscape:connector-curvature="0"
   style="fill:#bd2b31" />
	<path
   class="st2"
   d="m 186.9,89.25 c -0.14,-0.18 -0.32,-0.43 -0.57,-0.43 -0.76,0.29 -1.45,-0.14 -2.22,-0.12 -0.28,-0.09 -3.16,-0.2 -4.24,-0.7 -0.97,-0.45 -1.21,-1.24 -1.21,-1.24 -0.09,-0.32 -0.66,-0.51 -0.78,-0.2 -0.12,0.36 -0.05,1 0.17,1.47 0.32,0.69 0.4,1.18 0.66,1.81 0.05,0.21 0.27,0.29 0.45,0.23 0.21,-0.02 0.15,-0.82 0.1,-1.01 0.09,-0.18 0.51,0.13 0.69,0.08 0.38,-0.04 0.46,0.08 0.73,0.3 0.21,0.5 0.32,1.32 0.45,1.82 0.02,0.4 0.17,0.77 0.13,1.17 -0.09,0.2 -0.62,0.57 -0.85,0.52 -0.4,-0.09 -0.44,-0.71 -0.85,-0.71 -0.25,0.07 -0.2,0.36 -0.21,0.58 0.2,0.47 0.13,2.45 0.34,2.97 0.11,0.2 0.25,0.5 0.54,0.38 0.87,-0.56 0.01,-0.61 0.82,-1.29 0.86,-0.73 4.02,-3.47 4.63,-3.83 0.29,-0.14 0.86,-0.8 1.09,-1.05 0.15,-0.23 0.22,-0.51 0.13,-0.75 z m -4.8,2.48 c -0.2,0.02 -0.23,-0.21 -0.31,-0.34 l -0.27,-1.92 c 0.5,-0.36 2.34,0.23 3.09,0.22 0.59,-0.02 -2.04,1.68 -2.51,2.04 z"
   id="path14809"
   inkscape:connector-curvature="0"
   style="clip-rule:evenodd;fill:#bd2b31;fill-rule:evenodd" />
	<path
   class="st2"
   d="m 175.97,69.75 c -0.05,-0.3 -0.43,-0.32 -0.7,-0.34 -1.94,0.54 -3.67,1.6 -5.6,2.21 -0.59,0 -1.22,0.11 -1.72,-0.18 -0.23,-0.03 -0.56,-0.23 -0.77,0 -0.08,0.25 0.01,0.49 0.14,0.68 0.75,0.47 1.23,1.73 2.09,1.73 0.36,0 -0.13,-0.57 0.54,-0.89 0.88,-0.42 1.65,0.75 2.12,1.42 0.09,0.29 0.02,0.61 -0.13,0.86 -0.11,0.22 -0.39,0.04 -0.65,0 -0.23,0.02 -0.41,-0.25 -0.58,0.02 -0.03,0.06 -0.05,0.41 -0.01,0.45 0.64,0.31 1.06,0.97 1.47,1.53 0.26,0.23 0.48,0.84 0.76,0.65 0.5,-0.36 0.18,-0.65 0.23,-1.03 0.14,-0.84 0.9,-1.96 1.27,-3.17 0.32,-1.26 1.34,-2.63 1.54,-3.94 z m -3.32,3.57 c -0.52,-0.02 -1.02,-0.67 -1.25,-1.04 0.27,-0.36 1.72,-1.07 2.09,-1.27 0.41,-0.13 -0.51,2.09 -0.84,2.31 z"
   id="path14811"
   inkscape:connector-curvature="0"
   style="clip-rule:evenodd;fill:#bd2b31;fill-rule:evenodd" />
	<path
   class="st2"
   d="m 169.16,139.42 c -0.4,-1.51 -0.85,-3 -1.09,-4.57 -0.08,-0.63 -0.23,-1.33 -0.13,-1.96 0.22,-0.42 0.62,-0.76 0.67,-1.24 -0.07,-0.18 -0.29,-0.29 -0.5,-0.25 -0.47,0.5 -1.04,0.81 -1.64,1.08 -0.27,0.47 -0.56,0.22 -0.74,0.76 0.11,0.29 0.47,0.25 0.76,0.29 0.29,0.05 0.16,0.38 0.2,0.57 -0.41,0.79 -1.26,1.25 -1.98,1.64 -0.23,0.04 -0.42,-0.14 -0.52,-0.32 -0.38,-0.43 -0.12,-0.5 -0.18,-0.95 -0.05,-0.13 -0.2,-0.16 -0.34,-0.15 -0.68,0.61 -1.56,0.9 -2.21,1.58 -0.17,0.16 -0.47,0.21 -0.43,0.5 0.09,0.23 0.16,0.51 0.39,0.67 0.2,0.09 0.44,0.1 0.63,0 1.42,-0.73 2.31,1.3 3.53,1.95 0.9,0.23 2.1,1.74 2.68,1.68 0.47,-0.05 0.8,-0.23 1.13,-0.55 0.13,-0.28 -0.14,-0.5 -0.23,-0.73 z m -1.51,-0.93 c -0.36,-0.07 -1.62,-1.62 -1.91,-1.78 -0.09,-0.07 -0.21,-0.03 -0.27,-0.16 l 0.01,-0.18 c 0.33,-0.3 1.49,-1.5 1.78,-0.59 0.13,0.34 0.57,2.1 0.64,2.46 -0.04,0.13 -0.12,0.24 -0.25,0.25 z"
   id="path14813"
   inkscape:connector-curvature="0"
   style="clip-rule:evenodd;fill:#bd2b31;fill-rule:evenodd" />
	<path
   class="st2"
   d="m 107.56,124.18 c -0.4,-0.81 -0.9,-2.37 -1.35,-2.34 -0.68,0.04 -0.01,1.12 -0.59,1.45 -0.25,0.16 -0.61,0.23 -0.92,0.13 -0.66,-0.32 -0.65,-0.61 -1.08,-1.49 -0.19,-0.39 -0.66,-0.83 -0.29,-1.28 0.29,-0.25 0.42,-0.79 0.88,-0.79 0.2,0.03 0.2,0.25 0.27,0.4 0.11,0.21 0.21,0.58 0.56,0.45 0.12,-0.04 0.31,-0.14 0.31,-0.31 -0.11,-0.85 -0.77,-1.44 -1.03,-2.23 -0.36,-0.43 -0.23,-1.29 -0.97,-1.35 -0.45,0.2 -0.14,0.81 -0.27,1.21 -0.55,0.72 -0.99,1.49 -1.67,2.18 -0.63,0.72 -1.15,1.56 -1.88,2.21 l -0.72,1.19 c -0.05,0.27 -0.41,0.82 -0.03,0.86 2.18,0.23 3.95,0.13 5.93,0.09 0.79,0.02 1.8,-0.21 2.38,0.45 0.23,0.16 0.29,0.49 0.54,0.57 0.22,0.07 0.41,0.09 0.57,-0.11 0.03,-0.5 -0.4,-0.87 -0.64,-1.29 z m -4.82,-0.73 c -0.56,-0.02 -1.42,0.04 -1.98,0.05 -0.12,-0.07 1.36,-1.46 1.4,-1.57 0.39,-0.41 0.65,0.46 0.65,0.46 0,0 0.19,0.75 0.44,0.89 0.05,0.13 -0.39,0.19 -0.51,0.17 z"
   id="path14815"
   inkscape:connector-curvature="0"
   style="clip-rule:evenodd;fill:#bd2b31;fill-rule:evenodd" />
	<path
   class="st3"
   d="m 175.41,82.95 c -0.43,-0.79 -0.63,-1.41 -0.61,-1.89 0.02,-0.48 0.43,-1.01 0.49,-1.43 0.23,-0.58 0.79,-1.06 1.28,-1.46 0.48,-0.41 1.06,-0.72 1.75,-0.91 0.62,-0.03 1.23,-0.32 1.74,-0.29 0.51,0.03 0.98,0.16 1.4,0.38 0.44,0.23 0.68,0.6 1.1,0.94 1.21,1.56 1.39,3.29 0.73,3.64 l -0.19,0.13 -0.72,0.34 c -0.29,0.19 -0.5,0.21 -0.61,0.27 -0.11,0.07 -0.2,0.11 -0.25,0.13 -0.08,0.02 -0.15,0.02 -0.21,0 -0.06,-0.02 -0.1,-0.06 -0.11,-0.11 -0.01,-0.08 0.07,-0.24 0.25,-0.49 0.09,-0.12 0.16,-0.21 0.21,-0.28 0.24,-0.35 0.5,-0.42 0.59,-0.72 0.09,-0.3 0.01,-0.84 -0.04,-1.12 -0.11,-0.56 -0.48,-1.04 -1.08,-1.25 -0.59,-0.22 -1.27,-0.05 -2.07,0.18 -0.9,0.26 -1.46,0.53 -1.91,1.06 -0.45,0.53 -0.65,1.29 -0.43,1.94 0.05,0.26 0.14,0.43 0.25,0.52 0.07,0.43 1.21,1.72 1.42,1.66 0.31,0.19 -0.22,0.54 -0.22,0.54 -0.15,0.02 -2.19,-0.66 -2.76,-1.78 z"
   id="path14817"
   inkscape:connector-curvature="0"
   style="fill:#bd2b31" />
	<path
   class="st3"
   d="m 126.17,147.15 c -0.15,-0.05 -0.33,-0.15 -0.39,-0.25 -0.05,-0.09 -0.06,-0.2 -0.02,-0.32 0.07,-0.18 0.69,-0.23 0.72,-0.24 0.17,-0.04 0.39,-0.39 0.67,-1.05 0.05,-0.13 0.44,-1.4 0.59,-1.9 0.02,-0.05 0.16,-0.85 0.2,-0.96 0.21,-0.57 0.04,-0.95 -0.1,-1.28 -0.14,-0.33 -0.38,-0.56 -0.89,-0.75 -0.54,-0.2 -0.77,-0.13 -1.12,0.02 -0.36,0.15 -0.63,0.3 -0.82,0.8 -0.05,0.13 -0.41,0.65 -0.44,0.75 l -0.98,1.83 c -0.25,0.81 -0.45,1.34 -0.35,1.47 0.04,0.06 0.09,0.12 0.17,0.21 0.16,0.17 0.39,0.47 0.34,0.61 -0.04,0.11 -0.1,0.18 -0.18,0.21 -0.08,0.03 -0.19,0.03 -0.31,-0.02 l -2.13,-0.92 c -0.14,-0.05 -0.23,-0.12 -0.28,-0.21 -0.05,-0.09 -0.06,-0.19 -0.02,-0.3 0.05,-0.14 0.19,-0.22 0.42,-0.23 0,0 0.62,0.1 0.68,0.05 0.06,-0.05 1.35,-2.52 1.35,-2.52 0.02,-0.06 0.63,-1.33 0.71,-1.54 0.25,-0.7 0.68,-1.14 1.28,-1.32 0.61,-0.18 1.24,-0.15 2.19,0.2 1.09,0.39 1.73,0.76 2.1,1.32 0.38,0.56 0.49,2.46 0.27,2.93 -0.1,0.21 -0.22,0.74 -0.28,0.86 l -0.3,1.54 c -0.03,0.05 -0.1,0.49 -0.12,0.55 -0.02,0.06 -0.14,0.41 -0.12,0.49 0.01,0.07 0.23,0.32 0.23,0.32 0.17,0.17 0.23,0.32 0.18,0.46 -0.04,0.11 -0.1,0.18 -0.2,0.22 -0.1,0.04 -0.2,0.03 -0.32,-0.01 z"
   id="path14819"
   inkscape:connector-curvature="0"
   style="fill:#bd2b31" />
	<path
   class="st2"
   d="m 194.42,96.9 c -0.38,-2.09 -0.38,-4.32 -1.13,-6.26 -0.56,-3.28 -1.74,-6.31 -2.82,-9.37 -0.56,-1.13 -0.93,-2.34 -1.74,-3.34 -0.42,-0.81 -0.92,-1.57 -1.28,-2.37 -0.85,-1.12 -1.23,-2.43 -2.05,-3.53 -1.04,-1.12 -1.78,-2.43 -2.75,-3.58 -0.9,-1.29 -2.16,-2.36 -3.08,-3.65 -0.88,-0.41 -1.15,-1.47 -2.03,-1.96 -0.34,-0.67 -1.17,-0.81 -1.53,-1.49 -1.1,-0.94 -2.07,-2.09 -3.24,-2.93 -1.73,-1.47 -3.91,-1.87 -5.6,-3.4 l -1.44,-0.72 c -1.26,-0.93 -2.75,-1.31 -4.1,-2.05 -1.15,-0.58 -2.33,-1.03 -3.49,-1.56 -0.95,-0.27 -1.84,-0.74 -2.84,-0.9 -0.27,0 -0.45,-0.25 -0.72,-0.22 -2.31,0.02 -4.26,-0.86 -6.44,-1.15 -1.96,-0.05 -3.89,-0.4 -5.81,-0.65 -0.86,0.11 -1.73,-0.05 -2.55,0.13 -1.56,0.11 -3.15,0.14 -4.66,0.36 -2.27,0.4 -4.62,0.58 -6.64,1.55 -2.25,0.76 -4.5,1.53 -6.71,2.34 -0.47,0.29 -0.99,0.45 -1.53,0.56 -1.35,0.36 -2.43,1.31 -3.78,1.64 -1.42,0.87 -3.02,1.23 -4.28,2.45 -1.44,0.6 -2.75,1.48 -4.03,2.5 -1.49,0.67 -2.8,1.84 -4.1,2.93 -1.31,1.53 -2.93,2.68 -4.25,4.14 -0.45,0.68 -1.06,1.33 -1.45,2.03 -0.66,0.79 -1.29,1.58 -1.87,2.41 -0.83,0.79 -1.35,1.74 -1.92,2.66 -0.65,1.32 -1.55,2.5 -2.21,3.8 -0.29,0.95 -0.79,1.82 -1.13,2.75 -0.67,1.1 -1.06,2.3 -1.53,3.49 -0.38,1.31 -0.95,2.53 -1.23,3.88 -0.14,0.47 -0.52,0.83 -0.41,1.39 -0.4,1.01 -0.47,2.16 -0.67,3.24 -0.05,1.76 -0.69,3.31 -0.69,5.07 0,1.47 -0.1,3.01 -0.12,4.44 0.07,2.48 0,5.02 0.3,7.46 0.2,1.06 0.15,2.16 0.5,3.15 0.72,2.77 1.26,5.6 2.3,8.22 0.52,1.94 1.47,3.7 2.17,5.58 0.57,1.01 1.42,1.89 1.78,2.99 0.76,1.19 1.26,2.52 2.27,3.58 0.15,0.38 0.67,0.61 0.7,1.04 0.55,0.61 0.95,1.33 1.44,2.01 0.71,0.68 1.21,1.51 1.93,2.17 0.16,0.61 0.88,0.93 1.15,1.48 0.6,0.56 1.37,0.95 1.76,1.69 1.1,0.43 1.73,1.51 2.7,2.21 2.38,2.07 4.93,3.76 7.59,5.21 1.2,0.49 2.3,1.24 3.49,1.77 1.56,0.79 3.22,1.38 4.8,2.1 1.44,0.15 2.66,0.9 4.14,0.87 0.56,0.03 0.99,0.36 1.56,0.36 1.96,0.43 3.88,0.93 5.86,1.31 3.13,0.11 6.4,0.65 9.53,0.13 4.28,0.09 8.26,-0.63 12.1,-1.64 1.78,-0.67 3.65,-1.1 5.45,-1.75 2.12,-1.17 4.44,-1.83 6.54,-3.04 0.56,-0.23 1.02,-0.65 1.6,-0.81 1.54,-0.76 2.88,-2.07 4.36,-2.99 2.11,-1.33 4.14,-2.95 6.06,-4.6 1.67,-1.87 3.42,-3.81 4.7,-5.9 1.58,-1.94 3,-3.98 4.06,-6.17 0.22,-0.16 0.27,-0.45 0.4,-0.67 0.07,-0.56 0.38,-1.01 0.61,-1.49 0.52,-1.62 1.53,-3.04 2.09,-4.66 0.41,-0.88 0.62,-1.85 0.84,-2.83 0.62,-1.71 1.19,-3.42 1.58,-5.21 0.54,-3.24 1.24,-6.42 1.57,-9.77 0.44,-2.1 -0.01,-4.29 -0.08,-6.43 z m -1.4,8.61 c -0.31,2.89 -0.79,5.87 -1.46,8.59 -0.21,2.11 -1.5,3.59 -1.85,5.65 -0.51,1.2 -0.68,2.74 -1.43,3.85 -0.87,1.69 -1.69,3.1 -2.47,4.81 -1.09,2.09 -5.6,9.33 -9.91,12.13 -1.67,1.13 -3.29,2.32 -4.89,3.65 l -2.11,1.29 c -1.03,0.16 -1.7,1.18 -2.61,1.64 -0.68,0.45 -1.46,0.65 -2.19,1 -2.18,1.14 -4.36,2.3 -6.76,2.94 -1.8,0.76 -3.81,1.01 -5.61,1.8 -2.36,0.36 -4.7,0.73 -7.1,0.98 -2.45,-0.04 -4.88,0.51 -7.25,0.06 -1.4,-0.35 -3.03,-0.28 -4.48,-0.33 -0.65,0.05 -1.13,-0.31 -1.73,-0.38 -1.63,-0.29 -3.14,-0.87 -4.85,-1 -1.98,-0.38 -3.8,-1.12 -5.69,-1.68 -0.4,-0.25 -0.87,-0.25 -1.31,-0.44 -1.89,-1.14 -4,-1.8 -5.83,-3.05 l -0.36,-0.16 c -1.44,-1.19 -2.98,-2.08 -4.5,-3.04 -1.69,-1.36 -3.54,-2.43 -5.18,-4 -1.09,-0.91 -1.91,-2.11 -2.85,-3.14 -0.8,-0.62 -1.34,-1.44 -2.07,-2.14 -1.34,-1.47 -2.05,-3.27 -3.36,-4.78 -1.07,-1.42 -1.55,-3.07 -2.4,-4.58 -0.47,-1.18 -1.14,-2.27 -1.56,-3.47 -0.73,-1.89 -1.09,-3.92 -1.93,-5.76 -0.31,-1.31 -0.76,-2.56 -0.91,-3.94 -0.27,-2.04 -0.8,-4.05 -0.54,-6.21 -0.16,-1.22 -0.27,-2.61 -0.09,-3.81 -0.18,-0.47 0.04,-0.98 0.09,-1.44 -0.18,-1 0.25,-1.98 -0.02,-2.96 0,-1.75 0.6,-3.16 0.54,-4.94 0.2,-1.11 0.45,-2.23 0.54,-3.4 0.33,-0.64 0.44,-1.36 0.77,-2 0.09,-1.22 0.69,-2.21 0.98,-3.34 0.45,-1.34 1.03,-2.63 1.78,-3.85 0.74,-1.36 1.36,-2.78 1.91,-4.23 1.07,-1.44 1.76,-3.04 3.09,-4.4 0.67,-1.25 1.71,-2.4 2.65,-3.52 0.4,-1.11 1.54,-1.73 2.32,-2.62 1.66,-1.65 3.45,-2.96 5.36,-4.01 1.2,-0.71 2.29,-1.65 3.51,-2.31 0.2,-0.33 0.6,-0.31 0.87,-0.53 2,-1.25 3.98,-2.6 6.14,-3.49 2.69,-1.51 5.67,-2.27 8.59,-3.23 1.05,-0.22 2.11,-0.45 3.11,-0.83 0.95,-0.06 1.75,-0.43 2.62,-0.62 0.91,-0.24 1.91,-0.24 2.78,-0.54 2,-0.31 3.94,0.18 5.98,0.15 0.82,0.07 1.54,-0.17 2.38,-0.08 0.49,0.04 1,0.02 1.45,-0.07 1.58,-0.04 3.02,0.27 4.49,0.53 0.71,0.22 1.42,0.38 2.16,0.54 0.96,0.03 1.72,0.6 2.67,0.74 0.95,0.34 2,0.42 2.96,0.73 2.36,0.98 4.79,1.82 7.1,2.96 1.68,1.24 3.65,1.78 5.28,3.18 1.36,0.84 2.69,1.82 3.99,2.82 0.67,0.43 1.17,1.2 1.8,1.71 0.84,0.85 1.73,1.64 2.57,2.47 0.76,0.65 1.32,1.47 2.12,2.07 0.65,0.8 1.24,1.63 1.92,2.43 1.42,1.92 2.82,3.85 3.93,5.9 1.07,1.29 1.74,2.74 2.4,4.19 0.75,2.2 1.87,4.25 2.36,6.56 0.49,1.93 1.3,3.71 1.68,5.69 0.33,1.6 0.46,3.29 0.59,4.96 0.2,1.36 0.31,2.93 0.09,4.31 0.06,1.32 0.09,2.78 -0.27,3.99 z"
   id="path14821"
   inkscape:connector-curvature="0"
   style="clip-rule:evenodd;fill:#bd2b31;fill-rule:evenodd" />
	<path
   class="st2"
   d="m 188.41,97.8 c -0.59,-0.89 -0.67,0.45 -0.91,0.77 -0.63,0.23 -1.38,0.42 -2.06,0.38 -1.33,-0.31 -2.32,0.32 -3.67,0 -0.24,-0.14 -0.69,0.16 -0.8,-0.16 -0.17,-0.28 -0.4,-0.61 -0.75,-0.57 -0.09,0.04 -0.18,0.1 -0.18,0.23 0.25,1.04 0.17,2.59 0.25,3.73 -0.01,0.71 1.39,2.6 1.83,2.93 0.73,0.53 1.63,0.55 2.62,0.55 0.88,0 1.63,-0.67 2.34,-1.28 l 0.73,-1.01 c 0.17,-0.27 0.11,-0.63 0.31,-0.88 0.11,-0.69 0.31,-1.55 0.31,-2.43 0.01,-0.67 0.16,-1.59 -0.02,-2.26 z m -1.47,4.8 c -0.99,1.36 -2.81,1.08 -4.23,0.93 -0.44,-0.22 -0.97,-0.55 -1.13,-1.1 -0.05,-0.26 -0.18,-1.07 -0.01,-1.3 0.64,-0.38 1.54,-0.22 2.27,-0.12 0.64,0.08 2.92,-0.33 3.2,-0.03 -0.02,0.28 -0.01,1.32 -0.1,1.62 z"
   id="path14823"
   inkscape:connector-curvature="0"
   style="clip-rule:evenodd;fill:#bd2b31;fill-rule:evenodd" />
</g>
<rect
   x="-86.57"
   y="-47.77"
   class="st4"
   width="283.45999"
   height="283.45999"
   id="rect14827"
   style="fill:none" />
</svg>